<?xml version="1.0" encoding="UTF-8"?>
<svg version="1.1" xmlns="http://www.w3.org/2000/svg" width="840" height="859">
<path d="M0 0 C1.02931641 -0.02449219 2.05863281 -0.04898437 3.11914062 -0.07421875 C13.85535309 -0.11496339 24.05167762 3.56642148 31.9453125 11.0390625 C37.20467219 16.80657289 38.5454894 22.06571715 38.3828125 29.78125 C37.93938897 35.66991442 36.44554832 40.93860635 34.1875 46.375 C35.34765625 46.08625 36.5078125 45.7975 37.703125 45.5 C53.22299897 41.7545704 67.36736562 40.36370636 82.15234375 47.8828125 C88.81441187 52.19061595 93.66021336 57.79314007 96.1875 65.375 C97.60543928 80.22849511 92.06298526 91.97789095 82.8046875 103.28515625 C78.50976804 108.19462207 78.50976804 108.19462207 76.1875 110.375 C75.5275 110.375 74.8675 110.375 74.1875 110.375 C74.1875 111.035 74.1875 111.695 74.1875 112.375 C71.87363233 114.32400023 69.55544246 116.14328448 67.125 117.9375 C66.40344727 118.4732666 65.68189453 119.0090332 64.93847656 119.56103516 C50.89716909 129.83329564 35.75100298 137.55660771 19.75 144.3125 C18.78956787 144.72693359 17.82913574 145.14136719 16.83959961 145.56835938 C15.9244458 145.94669922 15.00929199 146.32503906 14.06640625 146.71484375 C13.2472876 147.05894287 12.42816895 147.40304199 11.58422852 147.75756836 C8.77491074 148.48128891 6.95784123 148.1369902 4.1875 147.375 C9.33035714 141.80357143 9.33035714 141.80357143 13.1875 141.375 C13.1875 140.715 13.1875 140.055 13.1875 139.375 C14.55078125 138.18359375 14.55078125 138.18359375 16.5 136.8125 C20.10161388 134.19665879 23.60141575 131.4873758 27.0625 128.6875 C27.98804688 127.94113281 28.91359375 127.19476563 29.8671875 126.42578125 C32.35147444 124.40647404 32.35147444 124.40647404 34.1875 121.375 C34.8475 121.375 35.5075 121.375 36.1875 121.375 C36.1875 120.715 36.1875 120.055 36.1875 119.375 C37.32879851 118.23370149 38.47364645 117.09580301 39.6328125 115.97265625 C50.75738865 104.54061694 58.53724933 89.66619346 58.34765625 73.55078125 C58.12923183 70.58340556 57.33270184 68.11075995 56.1875 65.375 C55.94257813 64.7253125 55.69765625 64.075625 55.4453125 63.40625 C52.65215851 58.89556654 46.99684434 57.09338299 42.1875 55.375 C37.5084866 54.64975292 32.9191792 54.38899905 28.1875 54.375 C27.93871094 54.93832031 27.68992187 55.50164062 27.43359375 56.08203125 C14.01622611 80.77167014 -21.78185967 95.29779298 -46.81640625 104.58984375 C-49.73924509 105.35580282 -51.04938276 105.46268185 -53.8125 104.375 C-50.92604419 101.19989861 -48.00711824 98.76069486 -44.4375 96.375 C-24.50253288 82.68830616 -6.14141371 63.98828649 0.5 40.125 C1.91726182 32.39448096 1.34861169 26.14656782 -2.8125 19.375 C-10.76242904 11.76868283 -20.34827264 11.10595706 -30.8125 10.375 C-30.8125 9.385 -30.8125 8.395 -30.8125 7.375 C-28.96051206 6.57824985 -27.1057889 5.78785639 -25.25 5 C-24.21746094 4.55914062 -23.18492188 4.11828125 -22.12109375 3.6640625 C-14.55673861 0.71691115 -8.04921231 0.00996806 0 0 Z " fill="#E10613" transform="translate(112.8125,354.625)"/>
<path d="M0 0 C2.2578125 0.14453125 2.2578125 0.14453125 5 1 C6.9921875 3.44921875 6.9921875 3.44921875 8.875 6.6875 C9.21378174 7.26330811 9.55256348 7.83911621 9.90161133 8.43237305 C12.98915834 13.76632458 15.69787882 19.28355063 18.3984375 24.8203125 C20.90866836 29.80403913 23.90679332 34.36018997 27 39 C28.50634936 33.83537363 29.35980059 28.71105574 30 23.375 C30.08233887 22.69107178 30.16467773 22.00714355 30.24951172 21.30249023 C30.41695241 19.90176564 30.5837786 18.50096746 30.75 17.10009766 C31.14862949 13.75145424 31.56279632 10.40642499 32 7.0625 C32.144375 5.91910156 32.28875 4.77570313 32.4375 3.59765625 C32.7159375 2.31181641 32.7159375 2.31181641 33 1 C35.73247348 -0.36623674 37.98198902 -0.128426 41 0 C42.84382834 1.84382834 42.12347981 4.35170981 42.1328125 6.796875 C42 9 42 9 41.55078125 11.17578125 C40.75905583 15.2354797 40.44268676 19.32158187 40.0625 23.4375 C39.3837121 30.55222662 38.51617012 37.59794386 37.43359375 44.6640625 C36.80418016 49.50657787 36.5624253 54.35791578 36.34375 59.234375 C36 62 36 62 34 64 C31.59375 64.3984375 31.59375 64.3984375 29 64 C24.28699562 59.30696597 21.29670953 52.88055811 18.45703125 46.92578125 C16.53450562 43.06526732 14.4312574 39.31805846 12.3125 35.5625 C11.72299561 34.51425049 11.72299561 34.51425049 11.12158203 33.44482422 C9.4925203 30.56501368 7.83608055 27.75412082 6 25 C5.35059687 29.45782082 4.70613236 33.91634262 4.0625 38.375 C3.88009766 39.62667969 3.69769531 40.87835938 3.50976562 42.16796875 C2.59593508 48.51493728 1.75402058 54.83571124 1.24389648 61.22900391 C1 63 1 63 0 64 C-1.8125 64.1328125 -1.8125 64.1328125 -4 64.125 C-4.721875 64.12757813 -5.44375 64.13015625 -6.1875 64.1328125 C-8 64 -8 64 -9 63 C-8.80064971 61.21692237 -8.58993034 59.43479668 -8.34277344 57.65771484 C-7.93579426 54.50217686 -7.64120764 51.34425844 -7.3515625 48.17578125 C-5.09232815 23.65942456 -5.09232815 23.65942456 -3.4375 11.75 C-3.32293457 10.89446533 -3.20836914 10.03893066 -3.09033203 9.1574707 C-2.55348035 5.47603883 -2.09287378 3.13931067 0 0 Z " fill="#1B1B19" transform="translate(596,381)"/>
<path d="M0 0 C3.046875 -0.3984375 3.046875 -0.3984375 6.75 -0.375 C7.96171875 -0.38273437 9.1734375 -0.39046875 10.421875 -0.3984375 C15.56285733 0.17402996 18.84785767 2.09832339 22.875 5.25 C26.25522603 9.58194015 25.56108952 15.11208396 25.56640625 20.34375 C24.89210746 24.69646493 23.66091971 26.57201597 21 30 C21.61359375 30.26039063 22.2271875 30.52078125 22.859375 30.7890625 C26.5715614 32.88902196 27.75806527 36.02957229 29 40 C30.20910276 47.55176894 29.30157379 52.90490708 24.8984375 59.16015625 C19.77053905 64.12978623 14.8169807 64.3457404 7.99023438 64.3125 C6.90033203 64.291875 5.81042969 64.27125 4.6875 64.25 C3.57826172 64.24484375 2.46902344 64.2396875 1.32617188 64.234375 C-6.84569225 64.15430775 -6.84569225 64.15430775 -8 63 C-7.92944336 61.27954102 -7.92944336 61.27954102 -7.65234375 58.94140625 C-7.15182077 54.43189439 -6.71411849 49.92220673 -6.31640625 45.40234375 C-6.19348865 44.01707114 -6.07035597 42.63181759 -5.94702148 41.24658203 C-5.88425018 40.54132385 -5.82147888 39.83606567 -5.75680542 39.10943604 C-3.90332894 18.39137085 -3.90332894 18.39137085 -2.9375 9.625 C-2.73447266 7.75714844 -2.73447266 7.75714844 -2.52734375 5.8515625 C-2 3 -2 3 0 0 Z M8 10 C6.53329887 15.22512279 5.77422598 19.5814234 6 25 C11.01535052 24.67039784 11.01535052 24.67039784 15 22 C15.35685986 19.63197999 15.35685986 19.63197999 15.3125 17 C15.32925781 16.113125 15.34601563 15.22625 15.36328125 14.3125 C15.24339844 13.549375 15.12351562 12.78625 15 12 C12.04622502 9.63019987 12.04622502 9.63019987 8 10 Z M4 35 C3.56591291 38.07295113 3.56591291 38.07295113 3.4375 41.6875 C3.20382718 46.20358492 2.82678928 50.55173701 2 55 C10.33390301 55.39576825 10.33390301 55.39576825 17.6015625 51.69921875 C19.82387402 48.99892403 19.53501162 46.60373391 19.4140625 43.22265625 C18.73335297 39.56865885 16.94820976 38.11502005 14 36 C9.00355725 33.83375126 9.00355725 33.83375126 4 35 Z " fill="#1D1C1A" transform="translate(242,381)"/>
<path d="M0 0 C3.625 -0.1875 3.625 -0.1875 7 0 C8.30477857 5.55909179 7.74946273 10.58761022 7.125 16.1875 C6.98771484 17.54004883 6.98771484 17.54004883 6.84765625 18.91992188 C6.47317224 22.46169672 6.13032835 25.60901494 5 29 C4.81048606 30.47252509 4.65978958 31.95025781 4.53515625 33.4296875 C4.4585376 34.30189941 4.38191895 35.17411133 4.30297852 36.07275391 C4.22362061 36.99749512 4.1442627 37.92223633 4.0625 38.875 C3.48747489 45.13757539 2.90853524 51.39254037 2.0625 57.625 C1.86333984 59.09839844 1.86333984 59.09839844 1.66015625 60.6015625 C0.89196538 63.39250448 0.43622403 64.42724778 -2 66 C-8.23396588 66.95054118 -14.99880115 67.14811883 -20.625 64 C-25.96268241 59.91958754 -27.95850437 54.62104389 -28.9375 48.125 C-29.43586992 40.00157036 -26.87497394 33.01336121 -21.7265625 26.76171875 C-18.17038436 23.13312974 -14.64452602 20.31668507 -9.48828125 19.69921875 C-7.29847845 19.68890571 -5.17955076 19.81450018 -3 20 C-2.95101563 18.80761719 -2.90203125 17.61523438 -2.8515625 16.38671875 C-2.77652396 14.82028932 -2.7009766 13.25388421 -2.625 11.6875 C-2.57859375 10.50897461 -2.57859375 10.50897461 -2.53125 9.30664062 C-2.49257813 8.54931641 -2.45390625 7.79199219 -2.4140625 7.01171875 C-2.3826416 6.31522217 -2.3512207 5.61872559 -2.31884766 4.90112305 C-2 3 -2 3 0 0 Z M-15 33 C-18.41144191 36.5464594 -19.26042715 40.22748435 -19.5 45.0625 C-19.28044881 49.70140418 -18.42343385 52.66434651 -15 56 C-11.33142278 56.50125283 -11.33142278 56.50125283 -8 56 C-6.35162144 50.28562099 -5.64008619 44.85067708 -5.21875 38.921875 C-4.94444417 35.25793287 -4.49008305 31.64061692 -4 28 C-8.09709956 28 -11.73243063 30.71328183 -15 33 Z " fill="#1D1D1B" transform="translate(455,381)"/>
<path d="M0 0 C2.11777382 4.22764551 2.01426223 6.94077908 1.25 11.5625 C1.04316683 12.88223668 0.84026002 14.2025928 0.640625 15.5234375 C0.47916992 16.59029785 0.47916992 16.59029785 0.31445312 17.67871094 C-0.38762393 22.86143502 -0.78675518 28.08547506 -1.21386719 33.29711914 C-1.28766602 34.11043701 -1.36146484 34.92375488 -1.4375 35.76171875 C-1.52837891 36.843927 -1.52837891 36.843927 -1.62109375 37.94799805 C-2.0444984 40.24098521 -2.87140732 41.97041798 -4 44 C-4.59167969 43.97679687 -5.18335938 43.95359375 -5.79296875 43.9296875 C-10.47862226 43.82267421 -13.64395561 44.1849815 -18 46 C-21.98404778 45.70119642 -24.87878197 44.48096818 -28 42 C-33.1770312 35.61275371 -32.74956847 27.81562249 -32 20 C-30.46268461 12.63271162 -26.37026412 6.24166171 -20.125 2.0625 C-13.85760341 -1.19356682 -6.85158286 -0.40622033 0 0 Z M-10 9 C-15.08642007 10.69547336 -18.24389749 12.20234007 -21 17 C-23.33074679 24.11300446 -23.36648815 29.26702369 -20 36 C-16.39007621 35.34414811 -16.39007621 35.34414811 -13 34 C-13 33.34 -13 32.68 -13 32 C-12.34 32 -11.68 32 -11 32 C-9.33405548 24.68925318 -8.48827713 17.47834967 -8 10 C-8.66 9.67 -9.32 9.34 -10 9 Z " fill="#1D1D1B" transform="translate(671,401)"/>
<path d="M0 0 C2 2 2 2 2.02709961 4.32592773 C1.87253296 5.77140991 1.87253296 5.77140991 1.71484375 7.24609375 C1.6051123 8.32487793 1.49538086 9.40366211 1.38232422 10.51513672 C1.25615723 11.6651416 1.12999023 12.81514648 1 14 C0.8880127 15.14355957 0.77602539 16.28711914 0.66064453 17.46533203 C0.31372532 20.99997133 -0.05934107 24.53107737 -0.4375 28.0625 C-0.55931641 29.27099609 -0.68113281 30.47949219 -0.80664062 31.72460938 C-0.93103516 32.87896484 -1.05542969 34.03332031 -1.18359375 35.22265625 C-1.34686157 36.78125366 -1.34686157 36.78125366 -1.51342773 38.37133789 C-2 41 -2 41 -4 44 C-5.98828125 44.22265625 -5.98828125 44.22265625 -8.3125 44.0625 C-12.14092321 43.91572339 -14.44665815 44.55945601 -18 46 C-22.86816369 45.79715985 -25.68684945 44.58178438 -29 41 C-32.92288471 33.31114598 -33.22307817 24.23371114 -30.80859375 16.0078125 C-28.13462282 9.36809725 -24.27524613 4.02944585 -17.78125 0.8046875 C-12.049978 -0.8535176 -5.88886092 -0.6915226 0 0 Z M-17 12 C-20.80513396 15.80513396 -23 19.76587831 -23 25.2421875 C-22.72487755 28.73853524 -22.29524376 31.4235717 -20.6875 34.5625 C-18.86196593 36.43231097 -18.86196593 36.43231097 -15 36 C-15 35.34 -15 34.68 -15 34 C-14.01 33.67 -13.02 33.34 -12 33 C-10.14419732 30.14722633 -9.66818951 27.58839744 -9.3671875 24.234375 C-9.28339844 23.34492188 -9.19960938 22.45546875 -9.11328125 21.5390625 C-8.99533203 20.15847656 -8.99533203 20.15847656 -8.875 18.75 C-8.74544922 17.34621094 -8.74544922 17.34621094 -8.61328125 15.9140625 C-8.40167692 13.60992647 -8.19751323 11.30537956 -8 9 C-11.32112637 9 -14.15161421 10.40694307 -17 12 Z " fill="#1C1B19" transform="translate(304,401)"/>
<path d="M0 0 C2.60925337 3.91388005 2.03776945 6.95179123 1.6875 11.4375 C1.63916016 12.20126953 1.59082031 12.96503906 1.54101562 13.75195312 C1.15359797 19.38667318 1.15359797 19.38667318 0.50708008 21.96826172 C-0.03982583 24.15957176 -0.28889172 26.26374545 -0.5 28.51171875 C-0.5825 29.35154297 -0.665 30.19136719 -0.75 31.05664062 C-0.91777032 32.8221611 -1.08442262 34.58778814 -1.25 36.35351562 C-1.37375 37.60745117 -1.37375 37.60745117 -1.5 38.88671875 C-1.5721875 39.65201904 -1.644375 40.41731934 -1.71875 41.20581055 C-2 43 -2 43 -3 44 C-4.41667169 44.02048905 -5.83420627 43.99141268 -7.25 43.9375 C-11.05737841 43.87735184 -13.47254754 44.56995171 -17 46 C-21.4667464 45.90496284 -24.35946043 44.61200344 -27.67578125 41.57421875 C-31.57204578 36.94237626 -32.52543315 31.26673581 -32.28125 25.35546875 C-31.20324479 16.32717513 -27.82140001 9.7180843 -21.359375 3.39453125 C-15.3015267 -1.3068858 -7.30928128 -1.0722662 0 0 Z M-18 13 C-22.14643253 17.86804924 -22.44241657 23.30839782 -22.43359375 29.484375 C-21.93307997 32.38825674 -20.927621 33.8116133 -19 36 C-15.1503072 35.46532044 -12.6802898 34.87801609 -10 32 C-9.19567137 28.88690724 -8.97944941 25.76284128 -8.75 22.5625 C-8.67265625 21.70333984 -8.5953125 20.84417969 -8.515625 19.95898438 C-8.19610608 16.28166393 -8 12.69567981 -8 9 C-11.78601444 9 -14.94939108 10.8718084 -18 13 Z " fill="#1D1D1B" transform="translate(562,401)"/>
<path d="M0 0 C4.68155838 2.69679123 7.45322504 5.79325048 9 11 C9.8378761 20.52840493 10.07139068 30.54768219 5 39 C1.2732245 43.17498458 -2.10116864 45.84176405 -7.75 46.3125 C-12.18444838 46.24019921 -14.60482194 44.93219923 -18 42 C-22.34334778 36.83880063 -22.6735096 32.71872247 -22.5625 26.25 C-22.54606445 24.91364502 -22.54606445 24.91364502 -22.52929688 23.55029297 C-22.26626663 15.56732496 -20.73435729 9.99413867 -15.203125 4.078125 C-10.60615183 0.06956439 -6.01597664 -1.62797934 0 0 Z M-6 8 C-11.806008 13.2254072 -12.43352316 18.58728444 -12.98046875 26.10546875 C-13.00286139 29.42405742 -12.4179783 31.99722242 -11 35 C-8.65466049 35.76956136 -8.65466049 35.76956136 -6 36 C-2.60709131 33.61239759 -1.29108231 30.25165392 -0.375 26.3125 C0.5644173 18.49112679 0.5644173 18.49112679 -1.3125 11 C-2.926124 8.73510063 -2.926124 8.73510063 -6 8 Z " fill="#1D1D1B" transform="translate(740,401)"/>
<path d="M0 0 C4.98383173 2.35599318 7.02227569 4.89955309 9 10 C11.99952703 19.81663391 9.50898672 29.61032483 5.3125 38.625 C4.879375 39.40875 4.44625 40.1925 4 41 C3.34 41 2.68 41 2 41 C2 41.66 2 42.32 2 43 C-1.785755 46.28098767 -5.65661114 46.68790953 -10.4921875 46.55078125 C-14.92711369 45.57675541 -17.50724651 42.66123169 -20 39 C-22.14990676 34.83726106 -22.38474552 30.85638231 -22.375 26.25 C-22.3747583 25.18700684 -22.3747583 25.18700684 -22.37451172 24.10253906 C-22.24691997 18.23331841 -20.96748137 13.98190303 -18 9 C-17.32590542 7.67040656 -16.65717702 6.33803609 -16 5 C-15.34 5 -14.68 5 -14 5 C-14 4.34 -14 3.68 -14 3 C-9.77775767 -0.97902561 -5.50829108 -0.77446747 0 0 Z M-6 9 C-10.53044656 13.99911345 -13.09013018 19.35286752 -13.375 26.125 C-12.98803905 30.12359645 -12.05178121 32.58036464 -10 36 C-8.35 36 -6.7 36 -5 36 C-5 35.34 -5 34.68 -5 34 C-4.34 34 -3.68 34 -3 34 C0.46097811 26.46001198 2.7086906 20.69889914 -0.25 12.5625 C-1.74126524 9.867808 -1.74126524 9.867808 -4.1875 9.125 C-4.785625 9.08375 -5.38375 9.0425 -6 9 Z " fill="#1A1917" transform="translate(394,401)"/>
<path d="M0 0 C4.05408432 2.2417712 7.29948172 5.61823784 8.625 10.125 C9.13784658 14.05682379 9.45784548 18.05011271 9 22 C7 24 7 24 5.1875 24.23046875 C-0.58191603 24.11714094 -6.26842729 23.67007948 -12 23 C-11.68991116 24.60463449 -11.37683713 26.20869231 -11.0625 27.8125 C-10.88847656 28.70582031 -10.71445312 29.59914063 -10.53515625 30.51953125 C-10.02258847 33.11397171 -10.02258847 33.11397171 -9 36 C-1.93479467 35.59093459 -1.93479467 35.59093459 4 32 C5.32 32 6.64 32 8 32 C7.75993781 39.08183467 7.75993781 39.08183467 5.66796875 41.609375 C0.91047205 45.54501704 -2.35307757 46.47604824 -8.390625 46.40625 C-12.73149164 45.73042645 -15.43047608 43.48282951 -18 40 C-20.81915335 34.62702538 -21.5460376 30.21714741 -21.5 24.1875 C-21.49935547 23.39939941 -21.49871094 22.61129883 -21.49804688 21.79931641 C-21.33275777 15.319717 -19.76597926 10.35307053 -16 5 C-15.34 5 -14.68 5 -14 5 C-14 4.34 -14 3.68 -14 3 C-9.79335755 -0.52815173 -5.258349 -1.00908458 0 0 Z M-7.1875 9.6875 C-9.46612121 11.0412072 -9.46612121 11.0412072 -10 15 C-6.7 15 -3.4 15 0 15 C-0.33 13.35 -0.66 11.7 -1 10 C-3.44507934 9.12675738 -4.67700322 8.89848673 -7.1875 9.6875 Z " fill="#1B1B19" transform="translate(484,401)"/>
<path d="M0 0 C2.9698131 0.20875009 2.9698131 0.20875009 5.3125 -1.0625 C8.66962903 -2.23359152 10.60108539 -1.96056283 14 -1 C16.94377257 1.1026947 17.8741321 3.62239629 19 7 C19.23046875 10.19140625 19.23046875 10.19140625 19.1875 13.5625 C19.18105469 14.67753906 19.17460937 15.79257812 19.16796875 16.94140625 C19.02644 19.51854611 18.63208343 21.52956707 18 24 C17.77459195 27.26841668 17.62067865 30.53564022 17.4765625 33.80859375 C16.94372515 37.37685699 16.43633123 39.31803044 14 42 C10.3125 42.3125 10.3125 42.3125 7 42 C6.77746879 33.75398245 7.14344843 25.99671961 8.5546875 17.8671875 C9.07735474 14.50194407 9.15785082 11.39379273 9 8 C4.11198426 8.8529112 4.11198426 8.8529112 0.625 12 C0.41875 12.66 0.2125 13.32 0 14 C-0.33 14.66 -0.66 15.32 -1 16 C-2.49021463 23.14837328 -3.28575746 30.32137119 -3.75390625 37.6015625 C-4 40 -4 40 -5 42 C-11.15234375 42.09765625 -11.15234375 42.09765625 -13 42 C-13.33 41.67 -13.66 41.34 -14 41 C-13.80599169 38.98716383 -13.59959237 36.97515729 -13.3515625 34.96826172 C-12.93525945 31.45339197 -12.6066499 27.93460069 -12.28125 24.41015625 C-12.15251538 23.0357912 -12.02360657 21.66144247 -11.89453125 20.28710938 C-11.69516288 18.15861706 -11.49703011 16.03004016 -11.30224609 13.90112305 C-11.11139269 11.82044212 -10.91551872 9.74028496 -10.71875 7.66015625 C-10.54762695 5.81369507 -10.54762695 5.81369507 -10.37304688 3.92993164 C-10 1 -10 1 -9 -1 C-5.42808238 -2.53082184 -3.42860615 -1.49452063 0 0 Z " fill="#1F1F1D" transform="translate(321,403)"/>
<path d="M0 0 C3.32074546 2.58280202 4.7629689 5.01830613 6 9 C6.046875 12.42578125 6.046875 12.42578125 5.75 16.3125 C5.6984375 17.00166504 5.646875 17.69083008 5.59375 18.40087891 C5.1818666 23.57165379 4.62385586 28.72583495 4 33.875 C3.91717773 34.55860596 3.83435547 35.24221191 3.74902344 35.9465332 C3.12665716 40.74668569 3.12665716 40.74668569 2 43 C-4.75 43.125 -4.75 43.125 -7 42 C-6.69224454 38.91617386 -6.3779641 35.83304635 -6.0625 32.75 C-5.97548828 31.87730469 -5.88847656 31.00460937 -5.79882812 30.10546875 C-5.71181641 29.26113281 -5.62480469 28.41679687 -5.53515625 27.546875 C-5.456604 26.77182617 -5.37805176 25.99677734 -5.29711914 25.19824219 C-5.00986876 23.07301422 -4.52665221 21.07614135 -4 19 C-3.93451508 17.41788427 -3.91421619 15.83329919 -3.9375 14.25 C-3.94652344 13.45078125 -3.95554687 12.6515625 -3.96484375 11.828125 C-3.97644531 11.22484375 -3.98804688 10.6215625 -4 10 C-7.50654361 10.20037392 -8.96542521 10.97105367 -11.6875 13.25 C-16.82121571 19.96084468 -16.18148375 30.74883501 -16.65625 38.85546875 C-17 41 -17 41 -19 43 C-22.625 43.125 -22.625 43.125 -26 43 C-26.99830232 39.03619309 -26.95141673 35.75661883 -26.51171875 31.703125 C-26.38216797 30.4965625 -26.25261719 29.29 -26.11914062 28.046875 C-25.97669922 26.79390625 -25.83425781 25.5409375 -25.6875 24.25 C-25.55666016 23.0125 -25.42582031 21.775 -25.29101562 20.5 C-23.2854808 2.2854808 -23.2854808 2.2854808 -21 0 C-18.66702567 -0.04092937 -16.33294775 -0.04241723 -14 0 C-13.67 0.99 -13.34 1.98 -13 3 C-11.96875 2.319375 -10.9375 1.63875 -9.875 0.9375 C-6.22491924 -1.13456604 -4.07197367 -1.44781286 0 0 Z " fill="#1C1C1A" transform="translate(778,402)"/>
<path d="M0 0 C1.859375 1.52734375 1.859375 1.52734375 3 3 C2.34 5.31 1.68 7.62 1 10 C0.33613281 10.03738281 -0.32773437 10.07476562 -1.01171875 10.11328125 C-8.02216393 10.56756795 -8.02216393 10.56756795 -14 14 C-17.15492359 17.94365448 -18.0194215 22.03780559 -18 27 C-17.14356969 30.55747974 -16.5843015 32.4156985 -14 35 C-9.52474708 35.25818767 -5.39145699 34.85686966 -1 34 C0.33877662 38.01632987 -0.50950587 40.09632491 -2 44 C-6.49190582 47.04807895 -11.8060233 46.71261067 -17 46 C-21.24195492 44.21914325 -23.49182938 41.83001201 -25.875 37.9375 C-28.97418636 29.84518007 -29.15841355 21.21461765 -26.0390625 13.06640625 C-23.40687039 7.8317084 -19.37864264 3.38502263 -14.1328125 0.65625 C-9.58918601 -0.74178892 -4.66749163 -0.75744382 0 0 Z " fill="#1C1C1A" transform="translate(370,401)"/>
<path d="M0 0 C1 1 1 1 1.09765625 3.06640625 C1.08605469 3.89011719 1.07445312 4.71382813 1.0625 5.5625 C1.05347656 6.38878906 1.04445313 7.21507812 1.03515625 8.06640625 C1.02355469 8.70449219 1.01195312 9.34257812 1 10 C-0.08667969 10.02126953 -0.08667969 10.02126953 -1.1953125 10.04296875 C-7.82327302 10.27933053 -7.82327302 10.27933053 -13.5625 13.25 C-18.13177838 18.4050833 -18.31664214 22.3505151 -18 29 C-17.80469849 31.29887008 -17.80469849 31.29887008 -17 33 C-13.28424249 35.47717167 -11.40013262 35.30345742 -7 35 C-4.16621868 34.1025173 -4.16621868 34.1025173 -2 33 C-1 34 -1 34 -0.90234375 36.06640625 C-0.91394531 36.89011719 -0.92554688 37.71382813 -0.9375 38.5625 C-0.94652344 39.38878906 -0.95554687 40.21507812 -0.96484375 41.06640625 C-0.97644531 41.70449219 -0.98804688 42.34257812 -1 43 C-6.25082563 46.31631092 -10.95452692 46.97808116 -17 46 C-21.72701476 44.20644465 -24.29975722 42.31355886 -26.69921875 37.8125 C-28.21967062 33.94414981 -28.45898599 30.1862121 -28.375 26.0625 C-28.36412354 25.01026245 -28.36412354 25.01026245 -28.35302734 23.93676758 C-28.17238896 17.17853592 -26.75092921 12.62639382 -23 7 C-22.34 7 -21.68 7 -21 7 C-21 6.34 -21 5.68 -21 5 C-14.14709694 0.15451299 -8.3383515 -0.94753994 0 0 Z " fill="#1C1C1A" transform="translate(702,401)"/>
<path d="M0 0 C3.5625 -0.25 3.5625 -0.25 7 0 C7.33 0.33 7.66 0.66 8 1 C7.82809897 7.57190853 6.73305465 14.1541154 5.87182617 20.66357422 C5.23256613 25.68179441 4.73374757 30.70867243 4.2734375 35.74609375 C4.20980011 36.43532928 4.14616272 37.12456482 4.08059692 37.83468628 C3.75777658 41.33857191 3.44340885 44.8429174 3.14111328 48.34863281 C3.0223584 49.65026367 2.90360352 50.95189453 2.78125 52.29296875 C2.67876953 53.4636792 2.57628906 54.63438965 2.47070312 55.84057617 C2.02184242 58.85339072 1.26139313 61.24054065 0 64 C-2.64 64 -5.28 64 -8 64 C-9.13555072 60.59334784 -8.81722277 59.22059634 -8.125 55.75 C-7.29340903 51.14595993 -6.80220963 46.67178772 -6.5625 42 C-6.16471785 34.97010454 -5.19321286 28.11115589 -4.08837891 21.16040039 C-3.23896943 15.77715031 -2.59621571 10.44347938 -2.30859375 4.99609375 C-2 3 -2 3 0 0 Z " fill="#1C1C1A" transform="translate(524,381)"/>
<path d="M0 0 C0.22577649 7.07432991 -0.12165772 13.66967452 -1.42578125 20.625 C-2.26398204 25.55156791 -2.78197847 30.50826233 -3.30224609 35.47729492 C-3.89518741 40.89518741 -3.89518741 40.89518741 -5 42 C-8.5 42.125 -8.5 42.125 -12 42 C-13 41 -13 41 -13.03759766 39.25341797 C-12.99683105 38.50721191 -12.95606445 37.76100586 -12.9140625 36.9921875 C-12.87023437 36.16976562 -12.82640625 35.34734375 -12.78125 34.5 C-12.7296875 33.63375 -12.678125 32.7675 -12.625 31.875 C-12.58117187 31.03195312 -12.53734375 30.18890625 -12.4921875 29.3203125 C-12.22245981 24.4951838 -11.7219452 19.78216501 -11 15 C-10.76500177 12.21732258 -10.56651744 9.43466327 -10.37890625 6.6484375 C-9.97342111 3.81422177 -9.25179444 1.57137558 -8 -1 C-4.69496886 -2.65251557 -3.08539476 -1.65888379 0 0 Z " fill="#1C1C1A" transform="translate(716,403)"/>
<path d="M0 0 C0.33 0 0.66 0 1 0 C1.05434116 2.5419589 1.0938339 5.08273682 1.125 7.625 C1.14175781 8.33785156 1.15851563 9.05070312 1.17578125 9.78515625 C1.18222656 10.48769531 1.18867188 11.19023437 1.1953125 11.9140625 C1.20578613 12.5529541 1.21625977 13.1918457 1.22705078 13.85009766 C1 16 1 16 -1 22 C6.59 22 14.18 22 22 22 C22 21.34 22 20.68 22 20 C23.32 20 24.64 20 26 20 C26 19.34 26 18.68 26 18 C26.66 18 27.32 18 28 18 C28 17.34 28 16.68 28 16 C28.66 16 29.32 16 30 16 C30 14.68 30 13.36 30 12 C30.66 12 31.32 12 32 12 C32 9.36 32 6.72 32 4 C32.33 4 32.66 4 33 4 C34.02508195 8.02710767 34.62672392 10.56154141 32.94140625 14.4296875 C29.90531167 19.24012307 27.49741775 22.06080099 22 24 C17.88758529 24.3745281 13.81322352 24.32807401 9.6875 24.25 C8.57826172 24.24484375 7.46902344 24.2396875 6.32617188 24.234375 C-1.84569225 24.15430775 -1.84569225 24.15430775 -3 23 C-2.93352069 21.5586077 -2.7941235 20.12047889 -2.625 18.6875 C-2.05025492 13.58847958 -1.6463572 8.48911436 -1.28125 3.37109375 C-1 1 -1 1 0 0 Z " fill="#040302" transform="translate(237,421)"/>
<path d="M0 0 C-0.56071792 3.95306137 -1.72205803 6.48641007 -4 9.75 C-4.53625 10.52859375 -5.0725 11.3071875 -5.625 12.109375 C-7 14 -7 14 -8 15 C-9.99958364 15.04080783 -12.00045254 15.04254356 -14 15 C-13.50670798 9.37647098 -12.65857884 5.01039858 -10 0 C-6.30581799 -1.231394 -3.7943739 -0.64432764 0 0 Z " fill="#1E1E1B" transform="translate(746,383)"/>
<path d="M0 0 C1.65 0 3.3 0 5 0 C-3.04709052 6.34125566 -13.06617858 9.99014392 -22.4375 13.9375 C-23.3970459 14.3514502 -24.3565918 14.76540039 -25.34521484 15.19189453 C-26.26125488 15.57071777 -27.17729492 15.94954102 -28.12109375 16.33984375 C-28.9402124 16.68394287 -29.75933105 17.02804199 -30.60327148 17.38256836 C-33.41258926 18.10628891 -35.22965877 17.7619902 -38 17 C-32.85714286 11.42857143 -32.85714286 11.42857143 -29 11 C-29.33 11.66 -29.66 12.32 -30 13 C-29.34 13.33 -28.68 13.66 -28 14 C-28 13.34 -28 12.68 -28 12 C-27.39414063 11.84144531 -26.78828125 11.68289063 -26.1640625 11.51953125 C-20.44418848 9.92676633 -15.42565615 7.85879061 -10.2265625 4.98828125 C-8 4 -8 4 -4 4 C-4 3.34 -4 2.68 -4 2 C-2.68 2 -1.36 2 0 2 C0 1.34 0 0.68 0 0 Z " fill="#DF0002" transform="translate(155,485)"/>
<path d="M0 0 C0.66 0.33 1.32 0.66 2 1 C-9.43476287 14.04345574 -23.54012718 27.60476279 -40 34 C-40.99 33.67 -41.98 33.34 -43 33 C-41.515 32.505 -41.515 32.505 -40 32 C-40 31.34 -40 30.68 -40 30 C-37.09399739 28.74335022 -35.20395416 28 -32 28 C-32 27.34 -32 26.68 -32 26 C-31.36191406 25.66226562 -30.72382812 25.32453125 -30.06640625 24.9765625 C-29.24011719 24.53054688 -28.41382812 24.08453125 -27.5625 23.625 C-26.73878906 23.18414062 -25.91507813 22.74328125 -25.06640625 22.2890625 C-22.86533422 21.16581441 -22.86533422 21.16581441 -22 19 C-19.4375 18.375 -19.4375 18.375 -17 18 C-17 17.34 -17 16.68 -17 16 C-15.625 14.375 -15.625 14.375 -14 13 C-13.34 13 -12.68 13 -12 13 C-11.566875 12.071875 -11.566875 12.071875 -11.125 11.125 C-10 9 -10 9 -8 7 C-7.01 7 -6.02 7 -5 7 C-5 6.34 -5 5.68 -5 5 C-4.34 5 -3.68 5 -3 5 C-2.690625 4.360625 -2.38125 3.72125 -2.0625 3.0625 C-1 1 -1 1 0 0 Z " fill="#E20002" transform="translate(138,411)"/>
<path d="M0 0 C1.57027317 1.57027317 1.16974386 3.14269947 1.1875 5.3125 C1.20167969 6.09238281 1.21585937 6.87226563 1.23046875 7.67578125 C0.97984413 10.2032668 0.26373772 11.81718031 -1 14 C-1.66 14 -2.32 14 -3 14 C-2.47973634 9.61492059 -1.90136124 5.32501905 -1 1 C-9.15471799 4.26747551 -9.15471799 4.26747551 -14.4609375 10.88671875 C-15.56108961 15.19963391 -15.28699881 19.59137944 -15 24 C-15.99 24.33 -16.98 24.66 -18 25 C-18 20.38 -18 15.76 -18 11 C-17.34 11 -16.68 11 -16 11 C-16 9.68 -16 8.36 -16 7 C-15.34 7 -14.68 7 -14 7 C-13.67 6.01 -13.34 5.02 -13 4 C-9.08785815 1.26698502 -4.83569681 -0.73268134 0 0 Z " fill="#0F0E0C" transform="translate(452,408)"/>
<path d="M0 0 C0.99 0 1.98 0 3 0 C3 0.66 3 1.32 3 2 C2.38125 2.0825 1.7625 2.165 1.125 2.25 C-1.16088794 2.80583476 -1.16088794 2.80583476 -2.1875 4.9375 C-2.455625 5.618125 -2.72375 6.29875 -3 7 C-3.33 7.66 -3.66 8.32 -4 9 C-5.49021463 16.14837328 -6.28575746 23.32137119 -6.75390625 30.6015625 C-7 33 -7 33 -8 35 C-10.64 35 -13.28 35 -16 35 C-16 34.34 -16 33.68 -16 33 C-13.69 33 -11.38 33 -9 33 C-9 27.39 -9 21.78 -9 16 C-8.34 16 -7.68 16 -7 16 C-7.05800781 15.40832031 -7.11601562 14.81664062 -7.17578125 14.20703125 C-7.54853843 7.67845543 -7.54853843 7.67845543 -4.625 4.0625 C-3.75875 3.381875 -2.8925 2.70125 -2 2 C-1.34 1.34 -0.68 0.68 0 0 Z " fill="#13110F" transform="translate(324,410)"/>
<path d="M0 0 C1.65 0 3.3 0 5 0 C1.65789061 2.74352264 -1.97149601 4.57701024 -5.875 6.375 C-6.85496948 6.82746094 -6.85496948 6.82746094 -7.85473633 7.2890625 C-25.65911487 15.36659865 -25.65911487 15.36659865 -30.39453125 14.625 C-30.92433594 14.41875 -31.45414063 14.2125 -32 14 C-28.87378374 10.60582235 -26.43458973 8.3937282 -22 7 C-22 7.66 -22 8.32 -22 9 C-21.01 9.33 -20.02 9.66 -19 10 C-19 9.34 -19 8.68 -19 8 C-9.58997722 4.74031891 -9.58997722 4.74031891 -5 4 C-5 3.34 -5 2.68 -5 2 C-3.35 2 -1.7 2 0 2 C0 1.34 0 0.68 0 0 Z " fill="#DF0001" transform="translate(91,445)"/>
<path d="M0 0 C0.94488281 0.00153076 1.88976562 0.00306152 2.86328125 0.00463867 C4.29607422 0.00596802 4.29607422 0.00596802 5.7578125 0.00732422 C12.50419191 0.12095595 17.977086 0.88589698 23.86328125 4.37963867 C24.87390625 4.89526367 25.88453125 5.41088867 26.92578125 5.94213867 C28.86328125 7.37963867 28.86328125 7.37963867 29.86328125 10.37963867 C28.87328125 10.37963867 27.88328125 10.37963867 26.86328125 10.37963867 C26.86328125 9.71963867 26.86328125 9.05963867 26.86328125 8.37963867 C25.54328125 8.37963867 24.22328125 8.37963867 22.86328125 8.37963867 C22.86328125 7.71963867 22.86328125 7.05963867 22.86328125 6.37963867 C21.54328125 6.37963867 20.22328125 6.37963867 18.86328125 6.37963867 C18.86328125 5.71963867 18.86328125 5.05963867 18.86328125 4.37963867 C16.22328125 4.37963867 13.58328125 4.37963867 10.86328125 4.37963867 C10.86328125 3.71963867 10.86328125 3.05963867 10.86328125 2.37963867 C4.26328125 2.37963867 -2.33671875 2.37963867 -9.13671875 2.37963867 C-6.26331638 -0.4937637 -3.93375022 0.06368861 0 0 Z " fill="#E4111E" transform="translate(111.13671875,354.620361328125)"/>
<path d="M0 0 C2.30163882 3.45245824 2.34490322 4.94738713 2 9 C0 11 0 11 -3 11.25 C-6 11 -6 11 -8 9 C-8.333728 5.86295684 -8.52849028 3.83445834 -6.8125 1.125 C-4.36063578 -0.39684676 -2.83181098 -0.43566323 0 0 Z " fill="#20201E" transform="translate(716,385)"/>
<path d="M0 0 C0.66 0 1.32 0 2 0 C2.34726392 10.2442857 0.70808988 20.13481545 -2 30 C-0.02 30 1.96 30 4 30 C4 27.69 4 25.38 4 23 C6 25 6 25 6.1875 28.0625 C6 31 6 31 5 32 C3.1875 32.1328125 3.1875 32.1328125 1 32.125 C0.278125 32.12757813 -0.44375 32.13015625 -1.1875 32.1328125 C-3 32 -3 32 -4 31 C-3.71473447 28.3196926 -3.37380915 25.66794885 -3 23 C-2.82888939 21.57083756 -2.66218126 20.14114076 -2.5 18.7109375 C-2.4175 17.99679687 -2.335 17.28265625 -2.25 16.546875 C-2.08244578 15.09124772 -1.91578841 13.63551695 -1.75 12.1796875 C-1.276557 8.09624163 -0.71546076 4.05001896 0 0 Z " fill="#060604" transform="translate(591,413)"/>
<path d="M0 0 C0.66 0 1.32 0 2 0 C1.58319207 3.44034073 1.13802256 6.87642492 0.6875 10.3125 C0.56955078 11.28896484 0.45160156 12.26542969 0.33007812 13.27148438 C0.14155273 14.67817383 0.14155273 14.67817383 -0.05078125 16.11328125 C-0.16075439 16.97735596 -0.27072754 17.84143066 -0.3840332 18.73168945 C-1.09669768 21.35609121 -1.82718098 22.38880494 -4 24 C-7.21484375 24.36328125 -7.21484375 24.36328125 -10.9375 24.3125 C-12.77634766 24.30669922 -12.77634766 24.30669922 -14.65234375 24.30078125 C-17.71817458 24.02532154 -19.43324232 23.61467714 -22 22 C-22 21.34 -22 20.68 -22 20 C-20.68 20 -19.36 20 -18 20 C-18 20.66 -18 21.32 -18 22 C-16.06215735 21.85879286 -14.12473045 21.71187127 -12.1875 21.5625 C-11.10855469 21.48128906 -10.02960938 21.40007812 -8.91796875 21.31640625 C-5.94010095 21.09787539 -5.94010095 21.09787539 -3 20 C-2.95101563 18.72382813 -2.90203125 17.44765625 -2.8515625 16.1328125 C-2.77653809 14.46351928 -2.70099012 12.79424954 -2.625 11.125 C-2.57859375 9.86236328 -2.57859375 9.86236328 -2.53125 8.57421875 C-2.49257813 7.76855469 -2.45390625 6.96289062 -2.4140625 6.1328125 C-2.3826416 5.38918457 -2.3512207 4.64555664 -2.31884766 3.87939453 C-2 2 -2 2 0 0 Z " fill="#090906" transform="translate(457,423)"/>
<path d="M0 0 C0.33 0 0.66 0 1 0 C1.05399736 1.45792884 1.09279177 2.91642712 1.125 4.375 C1.14820313 5.18710937 1.17140625 5.99921875 1.1953125 6.8359375 C1 9 1 9 -1 11 C-7.22916844 11.79207099 -13.80153364 10.72466413 -20 10 C-19.68991116 11.60463449 -19.37683713 13.20869231 -19.0625 14.8125 C-18.88847656 15.70582031 -18.71445312 16.59914063 -18.53515625 17.51953125 C-18.02258847 20.11397171 -18.02258847 20.11397171 -17 23 C-18.9375 22.1875 -18.9375 22.1875 -21 21 C-22 18 -22 18 -22 8 C-14.74 8 -7.48 8 0 8 C0 5.36 0 2.72 0 0 Z " fill="#020202" transform="translate(492,414)"/>
<path d="M0 0 C12.61684989 -0.41594011 12.61684989 -0.41594011 17 3 C19.37774312 6.27473603 19.21104874 9.29175775 19.125 13.25 C19.10695313 14.32765625 19.08890625 15.4053125 19.0703125 16.515625 C19.04710937 17.33546875 19.02390625 18.1553125 19 19 C18.67 19 18.34 19 18 19 C17.96261719 18.40832031 17.92523438 17.81664062 17.88671875 17.20703125 C17.48947172 12.43227778 17.05756639 8.88075734 14 5 C10.96474514 2.97649676 9.80573798 2.67875982 6.3125 2.375 C5.50425781 2.30023438 4.69601563 2.22546875 3.86328125 2.1484375 C3.24839844 2.09945313 2.63351563 2.05046875 2 2 C2.02320313 2.96421875 2.04640625 3.9284375 2.0703125 4.921875 C2.08835938 6.18515625 2.10640625 7.4484375 2.125 8.75 C2.14820313 10.00296875 2.17140625 11.2559375 2.1953125 12.546875 C2 16 2 16 0 20 C0 13.4 0 6.8 0 0 Z " fill="#0A0907" transform="translate(244,414)"/>
<path d="M0 0 C2.0625 0.4375 2.0625 0.4375 4 1 C5.27961179 4.70270646 4.77666413 7.66831387 4.1875 11.5 C3.23760371 17.96470871 2.50873809 24.43429191 1.875 30.9375 C1.78758545 31.83210938 1.7001709 32.72671875 1.61010742 33.6484375 C1.40472441 35.76543059 1.2020583 37.88268699 1 40 C-1.12684145 36.80973783 -1.22934144 36.25712427 -1.01171875 32.65625 C-0.96466797 31.82222656 -0.91761719 30.98820312 -0.86914062 30.12890625 C-0.80919922 29.26136719 -0.74925781 28.39382813 -0.6875 27.5 C-0.63916016 26.63246094 -0.59082031 25.76492188 -0.54101562 24.87109375 C-0.32542951 21.33984777 -0.12511987 18.37535962 1 15 C1.22451458 12.77425665 1.40782878 10.54418481 1.5625 8.3125 C1.64628906 7.13300781 1.73007812 5.95351563 1.81640625 4.73828125 C1.87699219 3.83464844 1.93757812 2.93101562 2 2 C1.01 1.67 0.02 1.34 -1 1 C-0.67 0.67 -0.34 0.34 0 0 Z " fill="#161613" transform="translate(668,401)"/>
<path d="M0 0 C0.66 0.66 1.32 1.32 2 2 C0.5484451 3.67257355 -0.91144409 5.33791758 -2.375 7 C-3.18710938 7.928125 -3.99921875 8.85625 -4.8359375 9.8125 C-5.55007812 10.534375 -6.26421875 11.25625 -7 12 C-7.66 12 -8.32 12 -9 12 C-9 12.66 -9 13.32 -9 14 C-10.29418945 15.23339844 -10.29418945 15.23339844 -12.11328125 16.609375 C-12.77972656 17.11436523 -13.44617188 17.61935547 -14.1328125 18.13964844 C-14.85210937 18.67106445 -15.57140625 19.20248047 -16.3125 19.75 C-17.39724609 20.55872559 -17.39724609 20.55872559 -18.50390625 21.38378906 C-24.09045614 25.4820781 -29.75165313 28.98173075 -36 32 C-36 31.34 -36 30.68 -36 30 C-33.91796875 28.52734375 -33.91796875 28.52734375 -31.1875 26.9375 C-30.29417969 26.41027344 -29.40085938 25.88304687 -28.48046875 25.33984375 C-26 24 -26 24 -23 23 C-23 22.34 -23 21.68 -23 21 C-22.360625 20.71125 -21.72125 20.4225 -21.0625 20.125 C-18.84793921 19.17176549 -18.84793921 19.17176549 -18 17 C-17.34 17 -16.68 17 -16 17 C-16 16.34 -16 15.68 -16 15 C-15.01 15 -14.02 15 -13 15 C-13 14.34 -13 13.68 -13 13 C-12.34 12.34 -11.68 11.68 -11 11 C-10.01 11 -9.02 11 -8 11 C-8 10.34 -8 9.68 -8 9 C-7.34 9 -6.68 9 -6 9 C-6 8.34 -6 7.68 -6 7 C-5.34 7 -4.68 7 -4 7 C-4 6.01 -4 5.02 -4 4 C-3.34 4 -2.68 4 -2 4 C-2 3.34 -2 2.68 -2 2 C-1.34 2 -0.68 2 0 2 C0 1.34 0 0.68 0 0 Z " fill="#DF0002" transform="translate(196,453)"/>
<path d="M0 0 C15.00532681 5.73990171 15.00532681 5.73990171 18.21484375 10.9375 C20.93796681 18.09077849 20.30755534 26.59051976 19 34 C18.34 34 17.68 34 17 34 C17.02320313 32.98679687 17.04640625 31.97359375 17.0703125 30.9296875 C17.0890841 29.57813242 17.1072828 28.22656931 17.125 26.875 C17.14175781 26.20984375 17.15851563 25.5446875 17.17578125 24.859375 C17.21865599 20.48615111 16.63910462 17.04618133 15 13 C14.64808594 11.94039063 14.64808594 11.94039063 14.2890625 10.859375 C12.3041146 7.99623803 9.41652544 6.76426374 6.375 5.25 C5.76398438 4.93417969 5.15296875 4.61835938 4.5234375 4.29296875 C3.02094261 3.51824482 1.51114982 2.75770329 0 2 C0 1.34 0 0.68 0 0 Z " fill="#E30002" transform="translate(154,407)"/>
<path d="M0 0 C3.14635765 3.14635765 3.15273675 6.36990445 3.1875 10.6875 C3.11735288 17.48174918 1.80296063 23.79344432 -1 30 C-0.34 30 0.32 30 1 30 C1 30.66 1 31.32 1 32 C-0.98 32.495 -0.98 32.495 -3 33 C-3.33 31.68 -3.66 30.36 -4 29 C-3.34 29 -2.68 29 -2 29 C-2 27.02 -2 25.04 -2 23 C-1.34 23 -0.68 23 0 23 C0 15.41 0 7.82 0 0 Z " fill="#E10003" transform="translate(148,371)"/>
<path d="M0 0 C0.66 0 1.32 0 2 0 C1.125 7.875 1.125 7.875 0 9 C-1.41667169 9.02048905 -2.83420627 8.99141268 -4.25 8.9375 C-8.05737841 8.87735184 -10.47254754 9.56995171 -14 11 C-17.34215434 10.79947074 -19.28237324 10.5980223 -21.875 8.4375 C-22.24625 7.963125 -22.6175 7.48875 -23 7 C-19.28400809 6.79913557 -18.22791555 6.8480563 -15 9 C-15 8.34 -15 7.68 -15 7 C-13.35 7 -11.7 7 -10 7 C-10 6.34 -10 5.68 -10 5 C-8.68 5 -7.36 5 -6 5 C-6 5.66 -6 6.32 -6 7 C-4.35 7 -2.7 7 -1 7 C-1.020625 6.030625 -1.04125 5.06125 -1.0625 4.0625 C-1 1 -1 1 0 0 Z " fill="#090908" transform="translate(559,436)"/>
<path d="M0 0 C0.66 0 1.32 0 2 0 C2 4.62 2 9.24 2 14 C1.34 14 0.68 14 0 14 C0.03480469 15.04800781 0.06960938 16.09601563 0.10546875 17.17578125 C0.13360937 18.55467147 0.16090924 19.93357902 0.1875 21.3125 C0.22520508 22.34793945 0.22520508 22.34793945 0.26367188 23.40429688 C0.33834499 28.55674183 0.33834499 28.55674183 -1.51171875 30.98046875 C-2.00285156 31.31691406 -2.49398438 31.65335937 -3 32 C-4.27319725 29.4536055 -3.74392603 28.68602569 -3 26 C-2.80726042 24.56967826 -2.64193044 23.13547241 -2.5 21.69921875 C-2.37625 20.48008789 -2.37625 20.48008789 -2.25 19.23632812 C-2.1675 18.39521484 -2.085 17.55410156 -2 16.6875 C-1.44462537 11.1033816 -0.8387602 5.54929738 0 0 Z " fill="#0E0D0B" transform="translate(311,409)"/>
<path d="M0 0 C0.66 0.33 1.32 0.66 2 1 C0.09785933 22.00917431 0.09785933 22.00917431 -2 31 C-2.66 31 -3.32 31 -4 31 C-4 27.04 -4 23.08 -4 19 C-3.34 19 -2.68 19 -2 19 C-2 13.72 -2 8.44 -2 3 C-1.34 3 -0.68 3 0 3 C0 2.01 0 1.02 0 0 Z " fill="#0F0F0D" transform="translate(461,386)"/>
<path d="M0 0 C0.5775 0.78375 1.155 1.5675 1.75 2.375 C3.82897637 4.80047244 5.09040333 5.85694417 8 7 C8 7.66 8 8.32 8 9 C8.99 9 9.98 9 11 9 C11 8.34 11 7.68 11 7 C15.95 6.67 20.9 6.34 26 6 C25.67 6.99 25.34 7.98 25 9 C24.40832031 8.97679687 23.81664062 8.95359375 23.20703125 8.9296875 C18.52137774 8.82267421 15.35604439 9.1849815 11 11 C7.02995126 10.70224634 4.15565519 9.40826317 1 7 C-0.8125 3.8125 -0.8125 3.8125 -2 1 C-1.34 0.67 -0.68 0.34 0 0 Z " fill="#060605" transform="translate(642,436)"/>
<path d="M0 0 C0.99 0.33 1.98 0.66 3 1 C3 3.97 3 6.94 3 10 C-2.21173012 13.29161902 -6.99164122 13.76343833 -13 13 C-15.3046875 11.98046875 -15.3046875 11.98046875 -17 11 C-17 10.34 -17 9.68 -17 9 C-15.68 9 -14.36 9 -13 9 C-13 9.66 -13 10.32 -13 11 C-5.95792295 10.2812193 -5.95792295 10.2812193 1 9 C1 7.02 1 5.04 1 3 C-0.32 2.67 -1.64 2.34 -3 2 C-2.01 1.34 -1.02 0.68 0 0 Z " fill="#040403" transform="translate(698,434)"/>
<path d="M0 0 C0.66 0.33 1.32 0.66 2 1 C2 3.97 2 6.94 2 10 C0.91332031 10.02126953 0.91332031 10.02126953 -0.1953125 10.04296875 C-6.82327302 10.27933053 -6.82327302 10.27933053 -12.5625 13.25 C-14.85776212 15.83952649 -16.0569511 17.69932886 -17 21 C-17.66 20.67 -18.32 20.34 -19 20 C-19 19.01 -19 18.02 -19 17 C-18.34 17 -17.68 17 -17 17 C-16.814375 16.2575 -16.62875 15.515 -16.4375 14.75 C-14.49535833 11.03459855 -11.74884832 9.56656655 -8 8 C-2.63291139 6.6835443 -2.63291139 6.6835443 0 8 C0 5.36 0 2.72 0 0 Z " fill="#0F0F0E" transform="translate(701,401)"/>
<path d="M0 0 C0.33 0.66 0.66 1.32 1 2 C1.99 2 2.98 2 4 2 C4 2.66 4 3.32 4 4 C3.34 4 2.68 4 2 4 C2 4.66 2 5.32 2 6 C1.01 6 0.02 6 -1 6 C-1 6.66 -1 7.32 -1 8 C-1.66 8 -2.32 8 -3 8 C-3 6.02 -3 4.04 -3 2 C-4.32 2 -5.64 2 -7 2 C-7 3.32 -7 4.64 -7 6 C-7.99 6 -8.98 6 -10 6 C-9.67 3.69 -9.34 1.38 -9 -1 C-5.39416086 -2.33549598 -3.37916196 -1.73524533 0 0 Z " fill="#2B2A29" transform="translate(321,403)"/>
<path d="M0 0 C0.66 0.33 1.32 0.66 2 1 C1.7229061 4.45966438 1.42586237 7.91732798 1.125 11.375 C1.00705078 12.85226562 1.00705078 12.85226562 0.88671875 14.359375 C0.80292969 15.30039062 0.71914063 16.24140625 0.6328125 17.2109375 C0.55949707 18.08024902 0.48618164 18.94956055 0.41064453 19.84521484 C0 22 0 22 -2 24 C-4.4375 24.4375 -4.4375 24.4375 -7 24 C-8.8125 21.5 -8.8125 21.5 -10 19 C-9.34 18.34 -8.68 17.68 -8 17 C-7.7525 17.639375 -7.505 18.27875 -7.25 18.9375 C-6.19716567 21.19303909 -6.19716567 21.19303909 -3.921875 21.62890625 C-3.28765625 21.75136719 -2.6534375 21.87382812 -2 22 C-2.02320313 20.74703125 -2.04640625 19.4940625 -2.0703125 18.203125 C-2.08907427 16.5520893 -2.10727403 14.90104715 -2.125 13.25 C-2.14175781 12.425 -2.15851562 11.6 -2.17578125 10.75 C-2.18222656 9.95078125 -2.18867187 9.1515625 -2.1953125 8.328125 C-2.20578613 7.5949707 -2.21625977 6.86181641 -2.22705078 6.10644531 C-1.96777544 3.70103924 -1.19225925 2.08748506 0 0 Z " fill="#0F0F0D" transform="translate(632,421)"/>
<path d="M0 0 C0.66 0 1.32 0 2 0 C2.64834654 1.269553 3.29357815 2.54069706 3.9375 3.8125 C4.29714844 4.52019531 4.65679687 5.22789062 5.02734375 5.95703125 C6 8 6 8 7 11 C10.68024974 12.61930989 15.07192162 12.12878946 19 12 C19.33 11.67 19.66 11.34 20 11 C21.66617115 10.95936168 23.33388095 10.957279 25 11 C21.85397096 14.28903036 19.87327974 15.20701649 15.3125 15.4375 C10.39474427 15.38064733 7.87155463 14.23375471 4.40625 10.79296875 C1.92035179 7.62344854 0 4.12320029 0 0 Z " fill="#010100" transform="translate(463,432)"/>
<path d="M0 0 C0.515625 0.2475 1.03125 0.495 1.5625 0.75 C1.5625 1.41 1.5625 2.07 1.5625 2.75 C0.2425 2.75 -1.0775 2.75 -2.4375 2.75 C-2.4375 3.41 -2.4375 4.07 -2.4375 4.75 C-3.7575 4.75 -5.0775 4.75 -6.4375 4.75 C-6.4375 5.41 -6.4375 6.07 -6.4375 6.75 C-7.0975 6.75 -7.7575 6.75 -8.4375 6.75 C-8.4375 7.41 -8.4375 8.07 -8.4375 8.75 C-9.0975 8.75 -9.7575 8.75 -10.4375 8.75 C-10.4375 10.07 -10.4375 11.39 -10.4375 12.75 C-11.0975 12.75 -11.7575 12.75 -12.4375 12.75 C-12.4375 14.07 -12.4375 15.39 -12.4375 16.75 C-13.0975 16.75 -13.7575 16.75 -14.4375 16.75 C-15.04162555 11.79617051 -13.97097117 9.16530406 -11 5.3671875 C-7.9839731 2.24559965 -4.52558358 -0.46416242 0 0 Z " fill="#282726" transform="translate(289.4375,402.25)"/>
<path d="M0 0 C0.99 0 1.98 0 3 0 C2.64013841 7.3171857 2.64013841 7.3171857 0.125 10 C-4.59766143 11.51125166 -9.09320011 11.69886955 -14 11 C-17.1875 9 -17.1875 9 -19 7 C-17.02 7 -15.04 7 -13 7 C-13 7.66 -13 8.32 -13 9 C-10.03 9 -7.06 9 -4 9 C-4 8.34 -4 7.68 -4 7 C-2.68 7 -1.36 7 0 7 C0 4.69 0 2.38 0 0 Z " fill="#060604" transform="translate(367,436)"/>
<path d="M0 0 C4.94077851 4.94077851 6.2141533 6.27044892 6.3125 13.1875 C6.36857422 15.15783203 6.36857422 15.15783203 6.42578125 17.16796875 C5.91797673 21.73820945 4.7919241 23.4591574 2 27 C2.66 27.33 3.32 27.66 4 28 C2.68 28 1.36 28 0 28 C-0.33 27.01 -0.66 26.02 -1 25 C-0.01 24.67 0.98 24.34 2 24 C2 23.01 2 22.02 2 21 C2.66 21 3.32 21 4 21 C3.85860519 18.74971671 3.71171997 16.49977794 3.5625 14.25 C3.48128906 12.99703125 3.40007812 11.7440625 3.31640625 10.453125 C3.07484478 7.81682447 2.75716066 5.51962706 2 3 C1.34 3 0.68 3 0 3 C0 2.01 0 1.02 0 0 Z " fill="#100F0D" transform="translate(261,384)"/>
<path d="M0 0 C0.99 0 1.98 0 3 0 C3 1.65 3 3.3 3 5 C2.34 5 1.68 5 1 5 C1 5.66 1 6.32 1 7 C0.34 7 -0.32 7 -1 7 C-1 7.66 -1 8.32 -1 9 C-1.66 9 -2.32 9 -3 9 C-3 9.66 -3 10.32 -3 11 C-4.65 11 -6.3 11 -8 11 C-8 10.34 -8 9.68 -8 9 C-9.32 9 -10.64 9 -12 9 C-12 6.36 -12 3.72 -12 1 C-10.79371992 3.33214148 -9.8345262 5.49642139 -9 8 C-6.69 7.34 -4.38 6.68 -2 6 C-2 5.34 -2 4.68 -2 4 C-1.34 4 -0.68 4 0 4 C0 2.68 0 1.36 0 0 Z " fill="#232321" transform="translate(660,429)"/>
<path d="M0 0 C0.33 0 0.66 0 1 0 C1 8.25 1 16.5 1 25 C-2.79578986 21.20421014 -2.73939576 15.17154639 -3 10 C-2.37994479 6.48040603 -1.38186714 3.2912212 0 0 Z " fill="#12120F" transform="translate(429,414)"/>
<path d="M0 0 C7.87030989 -0.85546847 13.79027857 2.54148997 19.9375 7.25 C22.67167261 10.89556348 23.82976385 14.6330212 25 19 C24.34 19.33 23.68 19.66 23 20 C22.81566406 19.34773438 22.63132812 18.69546875 22.44140625 18.0234375 C20.38504946 11.82694903 18.18220993 8.50500434 12.52734375 5.18359375 C8.48127107 3.288756 4.339249 2.03272314 0 1 C0 0.67 0 0.34 0 0 Z " fill="#E10001" transform="translate(91,364)"/>
<path d="M0 0 C0.66 0.66 1.32 1.32 2 2 C1.38125 2.70125 0.7625 3.4025 0.125 4.125 C-3.82431121 9.46818575 -4.23644317 13.55973255 -3.38671875 19.94921875 C-3.01232599 22.18794655 -3.01232599 22.18794655 -2 25 C-2.66 25.33 -3.32 25.66 -4 26 C-7.80246914 15.81481481 -7.80246914 15.81481481 -7 11 C-5.13888707 6.94690962 -3.16689851 3.16689851 0 0 Z " fill="#0B0A09" transform="translate(286,411)"/>
<path d="M0 0 C6.19887485 -0.37952295 10.4477112 0.1647887 16 3 C16 3.33 16 3.66 16 4 C9.4 4 2.8 4 -4 4 C-2.68 3.34 -1.36 2.68 0 2 C0 1.34 0 0.68 0 0 Z " fill="#E71E2D" transform="translate(165,397)"/>
<path d="M0 0 C3.63 0.66 7.26 1.32 11 2 C10.67 2.66 10.34 3.32 10 4 C9.40832031 3.97679687 8.81664062 3.95359375 8.20703125 3.9296875 C3.50556755 3.82231313 0.37709205 4.22550322 -4 6 C-7.1875 5.8125 -7.1875 5.8125 -10 5 C-10.66 4.01 -11.32 3.02 -12 2 C-10.7625 2.185625 -9.525 2.37125 -8.25 2.5625 C-5.23720423 2.94711223 -2.89989173 3.0874594 0 2 C0 1.34 0 0.68 0 0 Z " fill="#040303" transform="translate(290,441)"/>
<path d="M0 0 C4.47400242 -0.36275695 4.47400242 -0.36275695 6.8125 1.25 C8 3 8 3 8 7 C8.66 7 9.32 7 10 7 C9.34 12.61 8.68 18.22 8 24 C7.67 24 7.34 24 7 24 C6.37283637 19.68825007 5.96420858 15.66848581 6.125 11.3125 C6.1722694 7.39589275 5.54564834 5.11134797 3 2 C2.01 1.34 1.02 0.68 0 0 Z " fill="#0C0C0B" transform="translate(733,408)"/>
<path d="M0 0 C0.66 0.99 1.32 1.98 2 3 C1.34 3 0.68 3 0 3 C0 3.66 0 4.32 0 5 C-0.66 5 -1.32 5 -2 5 C-2 5.66 -2 6.32 -2 7 C-2.66 7 -3.32 7 -4 7 C-4 8.32 -4 9.64 -4 11 C-4.66 11 -5.32 11 -6 11 C-6.33 12.98 -6.66 14.96 -7 17 C-7.66 16.34 -8.32 15.68 -9 15 C-8.70906026 10.63590392 -7.59100393 7.52376535 -5 4 C-4.34 4 -3.68 4 -3 4 C-3 3.34 -3 2.68 -3 2 C-2.01 1.34 -1.02 0.68 0 0 Z " fill="#2A2A28" transform="translate(684,404)"/>
<path d="M0 0 C0.33 0.66 0.66 1.32 1 2 C0.34 2 -0.32 2 -1 2 C-0.97679687 2.85980469 -0.95359375 3.71960938 -0.9296875 4.60546875 C-0.80227673 12.95087426 -1.47392783 20.79736206 -3 29 C-3.66 28.67 -4.32 28.34 -5 28 C-5.1559365 21.86886046 -4.59668531 16.11217535 -3.625 10.0625 C-3.43550781 8.76989258 -3.43550781 8.76989258 -3.2421875 7.45117188 C-3.11328125 6.63326172 -2.984375 5.81535156 -2.8515625 4.97265625 C-2.73635254 4.23281494 -2.62114258 3.49297363 -2.50244141 2.73071289 C-2.33663574 2.15957764 -2.17083008 1.58844238 -2 1 C-1.34 0.67 -0.68 0.34 0 0 Z " fill="#090908" transform="translate(631,381)"/>
<path d="M0 0 C0.8971875 0.309375 0.8971875 0.309375 1.8125 0.625 C1.8125 1.285 1.8125 1.945 1.8125 2.625 C0.4925 2.625 -0.8275 2.625 -2.1875 2.625 C-2.1875 3.285 -2.1875 3.945 -2.1875 4.625 C-2.8475 4.625 -3.5075 4.625 -4.1875 4.625 C-4.1875 5.285 -4.1875 5.945 -4.1875 6.625 C-4.8475 6.625 -5.5075 6.625 -6.1875 6.625 C-6.1875 7.945 -6.1875 9.265 -6.1875 10.625 C-6.8475 10.625 -7.5075 10.625 -8.1875 10.625 C-8.1875 11.945 -8.1875 13.265 -8.1875 14.625 C-8.8475 14.625 -9.5075 14.625 -10.1875 14.625 C-9.4375 7 -9.4375 7 -7.1875 3.625 C-6.5275 3.625 -5.8675 3.625 -5.1875 3.625 C-5.1875 2.965 -5.1875 2.305 -5.1875 1.625 C-2.1875 -0.375 -2.1875 -0.375 0 0 Z " fill="#282725" transform="translate(475.1875,402.375)"/>
<path d="M0 0 C0.33 0 0.66 0 1 0 C2.2386744 8.35268278 1.59105604 15.72913843 0 24 C-0.66 23.67 -1.32 23.34 -2 23 C-2.02685938 20.85423363 -2.04633088 18.70837355 -2.0625 16.5625 C-2.07410156 15.36753906 -2.08570313 14.17257812 -2.09765625 12.94140625 C-2 10 -2 10 -1 9 C-0.76807135 7.48530552 -0.58784762 5.96245438 -0.4375 4.4375 C-0.35371094 3.61121094 -0.26992188 2.78492188 -0.18359375 1.93359375 C-0.12300781 1.29550781 -0.06242188 0.65742188 0 0 Z " fill="#0A0A08" transform="translate(528,394)"/>
<path d="M0 0 C6.31619537 -0.48586118 6.31619537 -0.48586118 9.375 1.6875 C11.17081435 4.24308197 11.76147638 5.89919296 12 9 C11.67 9.99 11.34 10.98 11 12 C10.34 12 9.68 12 9 12 C8.67 9.36 8.34 6.72 8 4 C6.02 3.34 4.04 2.68 2 2 C1.67 3.32 1.34 4.64 1 6 C0 5 0 5 -0.0625 2.4375 C-0.041875 1.633125 -0.02125 0.82875 0 0 Z " fill="#0D0807" transform="translate(248,389)"/>
<path d="M0 0 C0.33 0 0.66 0 1 0 C0.88638398 2.79256219 0.7596411 5.58344118 0.625 8.375 C0.57859375 9.56609375 0.57859375 9.56609375 0.53125 10.78125 C0.2265625 16.7734375 0.2265625 16.7734375 -2 19 C-5.625 19.125 -5.625 19.125 -9 19 C-9.33 17.35 -9.66 15.7 -10 14 C-9.67 14.99 -9.34 15.98 -9 17 C-7.02 16.67 -5.04 16.34 -3 16 C-2.01 10.72 -1.02 5.44 0 0 Z " fill="#070706" transform="translate(761,426)"/>
<path d="M0 0 C-0.50298788 4.40114397 -2.08772731 6.71195019 -5 10 C-5.20086443 6.28400809 -5.1519437 5.22791555 -3 2 C-4.98 2 -6.96 2 -9 2 C-9 2.66 -9 3.32 -9 4 C-9.66 4 -10.32 4 -11 4 C-10.6875 2.0625 -10.6875 2.0625 -10 0 C-6.30581799 -1.231394 -3.7943739 -0.64432764 0 0 Z " fill="#0B0B08" transform="translate(746,383)"/>
<path d="M0 0 C0.66 0 1.32 0 2 0 C2 0.66 2 1.32 2 2 C2.66 2 3.32 2 4 2 C4 2.66 4 3.32 4 4 C9.94 4.99 9.94 4.99 16 6 C16 5.34 16 4.68 16 4 C17.65 4 19.3 4 21 4 C18.01575291 7.11989469 16.718261 7.94014492 12.25 8.3125 C7.85364772 8.25654643 5.36781718 6.88670044 2 4 C0.625 1.75 0.625 1.75 0 0 Z " fill="#030302" transform="translate(720,439)"/>
<path d="M0 0 C0.66 0 1.32 0 2 0 C2 5.94 2 11.88 2 18 C0.68 17.67 -0.64 17.34 -2 17 C-1.34 11.39 -0.68 5.78 0 0 Z " fill="#161614" transform="translate(453,384)"/>
<path d="M0 0 C0.99 0 1.98 0 3 0 C3 4.95 3 9.9 3 15 C2.01 14.67 1.02 14.34 0 14 C0 9.38 0 4.76 0 0 Z " fill="#2E2E2C" transform="translate(372,420)"/>
<path d="M0 0 C2.14965431 3.22448147 2.22152284 3.79930965 1.9765625 7.44921875 C1.925 8.29677734 1.8734375 9.14433594 1.8203125 10.01757812 C1.75585938 10.89865234 1.69140625 11.77972656 1.625 12.6875 C1.56828125 13.58017578 1.5115625 14.47285156 1.453125 15.39257812 C1.31173702 17.59587413 1.16034022 19.79801539 1 22 C0.34 22 -0.32 22 -1 22 C-1.02895225 18.70835171 -1.0467823 15.41673601 -1.0625 12.125 C-1.07506836 10.71927734 -1.07506836 10.71927734 -1.08789062 9.28515625 C-1.09111328 8.38925781 -1.09433594 7.49335938 -1.09765625 6.5703125 C-1.10289307 5.74289551 -1.10812988 4.91547852 -1.11352539 4.06298828 C-1 2 -1 2 0 0 Z " fill="#0C0C0B" transform="translate(719,415)"/>
<path d="M0 0 C0.99 0 1.98 0 3 0 C3 0.66 3 1.32 3 2 C6.88348484 3.29449495 9.90697336 3.13203312 14 3 C14.33 2.67 14.66 2.34 15 2 C16.66617115 1.95936168 18.33388095 1.957279 20 2 C16.89117075 5.31608453 14.43865109 6.37325561 10 6.625 C7.10714405 6.5300107 5.5516455 6.4241541 3.2421875 4.6484375 C1.875 3 1.875 3 0 0 Z " fill="#040403" transform="translate(376,441)"/>
<path d="M0 0 C0.66 0 1.32 0 2 0 C1.37084903 7.67028737 0.70900858 15.33667323 0 23 C-0.66 23 -1.32 23 -2 23 C-1.86068862 19.9163358 -1.71240719 16.83316583 -1.5625 13.75 C-1.52318359 12.87730469 -1.48386719 12.00460937 -1.44335938 11.10546875 C-1.40146484 10.26113281 -1.35957031 9.41679687 -1.31640625 8.546875 C-1.27974854 7.77182617 -1.24309082 6.99677734 -1.20532227 6.19824219 C-1.00396985 4.0425024 -0.58270703 2.08198525 0 0 Z " fill="#0D0D0B" transform="translate(713,415)"/>
<path d="M0 0 C1.32 0 2.64 0 4 0 C4 0.66 4 1.32 4 2 C11.92 1.505 11.92 1.505 20 1 C19.01 2.485 19.01 2.485 18 4 C14.8828125 4.36328125 14.8828125 4.36328125 11.125 4.3125 C9.27261719 4.30669922 9.27261719 4.30669922 7.3828125 4.30078125 C4.29731179 4.02643534 2.57987573 3.62700706 0 2 C0 1.34 0 0.68 0 0 Z " fill="#020201" transform="translate(435,443)"/>
<path d="M0 0 C0.66 0 1.32 0 2 0 C2.19818283 6.70518586 2.30844801 12.65176798 0 19 C-0.66 19 -1.32 19 -2 19 C-2 16.69 -2 14.38 -2 12 C-1.34 12 -0.68 12 0 12 C0 8.04 0 4.08 0 0 Z " fill="#151513" transform="translate(747,417)"/>
<path d="M0 0 C0.33 0 0.66 0 1 0 C1.02687279 1.81242052 1.04633715 3.62495233 1.0625 5.4375 C1.07410156 6.44683594 1.08570313 7.45617187 1.09765625 8.49609375 C1 11 1 11 0 12 C-0.23653523 14.52596259 -0.42173692 17.03107207 -0.5625 19.5625 C-0.60568359 20.27341797 -0.64886719 20.98433594 -0.69335938 21.71679688 C-0.79971777 23.47761912 -0.90038846 25.2387832 -1 27 C-1.33 27 -1.66 27 -2 27 C-2.19569589 24.43788925 -2.38180612 21.87567609 -2.5625 19.3125 C-2.61857422 18.59126953 -2.67464844 17.87003906 -2.73242188 17.12695312 C-2.99955159 13.22685936 -3.00887596 9.78888972 -2 6 C-1.67 6 -1.34 6 -1 6 C-0.67 4.02 -0.34 2.04 0 0 Z " fill="#0A0807" transform="translate(241,390)"/>
<path d="M0 0 C0.66 0 1.32 0 2 0 C1.79503906 0.75023437 1.59007812 1.50046875 1.37890625 2.2734375 C-0.35427661 8.85787383 -1.56395914 15.20377699 -2 22 C-2.33 22 -2.66 22 -3 22 C-3 16.06 -3 10.12 -3 4 C-2.34 4 -1.68 4 -1 4 C-0.67 2.68 -0.34 1.36 0 0 Z " fill="#0C0C0A" transform="translate(650,414)"/>
<path d="M0 0 C0 0.66 0 1.32 0 2 C-2.31 2 -4.62 2 -7 2 C-7 5.96 -7 9.92 -7 14 C-7.33 14 -7.66 14 -8 14 C-8.19448477 11.87562788 -8.38038289 9.75046809 -8.5625 7.625 C-8.66691406 6.44164062 -8.77132812 5.25828125 -8.87890625 4.0390625 C-9 1 -9 1 -8 -1 C-4.6677027 -2.37888164 -3.02109173 -1.83423426 0 0 Z " fill="#2C2C2B" transform="translate(716,403)"/>
<path d="M0 0 C0.99 0.33 1.98 0.66 3 1 C3.8125 2.75 3.8125 2.75 4 5 C3.34 6.65 2.68 8.3 2 10 C-1.63 10.33 -5.26 10.66 -9 11 C-9.33 10.34 -9.66 9.68 -10 9 C-7.24921116 8.08307039 -5.64051087 7.89113917 -2.8125 7.9375 C-0.9253125 7.9684375 -0.9253125 7.9684375 1 8 C1.08226668 4.95613276 0.97608217 2.92824652 0 0 Z " fill="#080706" transform="translate(369,401)"/>
<path d="M0 0 C0.99 0 1.98 0 3 0 C3 0.66 3 1.32 3 2 C3.928125 1.79375 4.85625 1.5875 5.8125 1.375 C9 1 9 1 12 3 C11.01 3 10.02 3 9 3 C9 3.66 9 4.32 9 5 C6.03 5 3.06 5 0 5 C0 3.35 0 1.7 0 0 Z " fill="#282726" transform="translate(245,404)"/>
<path d="M0 0 C0.99 0.33 1.98 0.66 3 1 C3 1.66 3 2.32 3 3 C1.68 3 0.36 3 -1 3 C-1 3.66 -1 4.32 -1 5 C-1.66 5 -2.32 5 -3 5 C-3.28875 5.94875 -3.5775 6.8975 -3.875 7.875 C-5 11 -5 11 -7 13 C-7.35098791 9.22687995 -7.30640454 7.46488965 -5.1875 4.25 C-3 2 -3 2 0 0 Z " fill="#282826" transform="translate(729,402)"/>
<path d="M0 0 C1.134375 0.020625 2.26875 0.04125 3.4375 0.0625 C3.7675 1.7125 4.0975 3.3625 4.4375 5.0625 C3.4475 5.3925 2.4575 5.7225 1.4375 6.0625 C1.4375 5.0725 1.4375 4.0825 1.4375 3.0625 C0.1175 3.0625 -1.2025 3.0625 -2.5625 3.0625 C-2.5625 5.0425 -2.5625 7.0225 -2.5625 9.0625 C-2.8925 9.0625 -3.2225 9.0625 -3.5625 9.0625 C-4.44140625 2.91015625 -4.44140625 2.91015625 -4.5625 1.0625 C-3.5625 0.0625 -3.5625 0.0625 0 0 Z " fill="#302F2E" transform="translate(458.5625,380.9375)"/>
<path d="M0 0 C0.99 0 1.98 0 3 0 C3 4.29 3 8.58 3 13 C2.01 12.67 1.02 12.34 0 12 C0 8.04 0 4.08 0 0 Z " fill="#383836" transform="translate(639,422)"/>
<path d="M0 0 C0.99 0.495 0.99 0.495 2 1 C4.27685912 0.99135917 6.53546303 0.86951278 8.80859375 0.7421875 C11 1 11 1 14 4 C9.38 4 4.76 4 0 4 C0 2.68 0 1.36 0 0 Z " fill="#353533" transform="translate(471,415)"/>
<path d="M0 0 C1.84061341 3.68122682 2.31543593 5.09259723 2.375 9 C2.40335938 9.845625 2.43171875 10.69125 2.4609375 11.5625 C2 14 2 14 -2 18 C-1.34 12.06 -0.68 6.12 0 0 Z " fill="#050504" transform="translate(522,384)"/>
<path d="M0 0 C0.53625 0.2475 1.0725 0.495 1.625 0.75 C1.625 1.41 1.625 2.07 1.625 2.75 C0.305 2.75 -1.015 2.75 -2.375 2.75 C-2.375 3.41 -2.375 4.07 -2.375 4.75 C-3.695 4.75 -5.015 4.75 -6.375 4.75 C-6.375 5.41 -6.375 6.07 -6.375 6.75 C-7.035 6.75 -7.695 6.75 -8.375 6.75 C-8.705 7.41 -9.035 8.07 -9.375 8.75 C-9.25 6.5 -9.25 6.5 -8.375 3.75 C-3.49815271 -0.3682266 -3.49815271 -0.3682266 0 0 Z " fill="#282827" transform="translate(358.375,402.25)"/>
<path d="M0 0 C0.66 0 1.32 0 2 0 C2.64834654 1.269553 3.29357815 2.54069706 3.9375 3.8125 C4.29714844 4.52019531 4.65679687 5.22789062 5.02734375 5.95703125 C6 8 6 8 7 11 C9.01508358 11.73323796 9.01508358 11.73323796 11 12 C9.68 12.33 8.36 12.66 7 13 C3.02814384 8.894534 0.29123499 5.97031739 0 0 Z " fill="#0A0A08" transform="translate(463,432)"/>
<path d="M0 0 C0.33 0 0.66 0 1 0 C2.18424958 5.10138281 2.48924998 7.92095526 -0.25 12.5 C-1.578125 14.53125 -1.578125 14.53125 -3 16 C-3.99 16 -4.98 16 -6 16 C-6 15.34 -6 14.68 -6 14 C-5.34 14 -4.68 14 -4 14 C-4 13.34 -4 12.68 -4 12 C-3.34 12 -2.68 12 -2 12 C-2 10.68 -2 9.36 -2 8 C-1.34 8 -0.68 8 0 8 C0 5.36 0 2.72 0 0 Z " fill="#0C0A09" transform="translate(269,425)"/>
<path d="M0 0 C0.66 0 1.32 0 2 0 C1.25 5.75 1.25 5.75 -1 8 C-4.625 8.125 -4.625 8.125 -8 8 C-8 7.34 -8 6.68 -8 6 C-6.02 6 -4.04 6 -2 6 C-1.34 4.02 -0.68 2.04 0 0 Z " fill="#090805" transform="translate(336,437)"/>
<path d="M0 0 C0.66 0.66 1.32 1.32 2 2 C1.9765625 5.0390625 1.9765625 5.0390625 1.625 8.625 C1.51414062 9.81351562 1.40328125 11.00203125 1.2890625 12.2265625 C1.19367188 13.14179688 1.09828125 14.05703125 1 15 C0.34 15 -0.32 15 -1 15 C-1.02693575 12.87506859 -1.04636628 10.75004088 -1.0625 8.625 C-1.07410156 7.44164062 -1.08570313 6.25828125 -1.09765625 5.0390625 C-1 2 -1 2 0 0 Z " fill="#0C0B09" transform="translate(301,427)"/>
<path d="M0 0 C0.33 0 0.66 0 1 0 C1 4.29 1 8.58 1 13 C0.34 13 -0.32 13 -1 13 C-1.33 13.99 -1.66 14.98 -2 16 C-2.20674944 10.21101581 -1.59162079 5.57067277 0 0 Z " fill="#10100F" transform="translate(554,419)"/>
<path d="M0 0 C-1.53079667 3.44429252 -3.61654706 6.09516673 -6 9 C-6.66 9.99 -7.32 10.98 -8 12 C-9 9 -9 9 -8 6 C-7.34 6 -6.68 6 -6 6 C-5.896875 5.38125 -5.79375 4.7625 -5.6875 4.125 C-4.72223986 1.14146864 -3.16449578 0 0 0 Z " fill="#0B0B09" transform="translate(770,410)"/>
<path d="M0 0 C0.66 0.66 1.32 1.32 2 2 C1.44444444 6.55555556 1.44444444 6.55555556 0 8 C-2.375 8.375 -2.375 8.375 -5 8 C-6.8125 5.5 -6.8125 5.5 -8 3 C-7.34 2.34 -6.68 1.68 -6 1 C-5.7525 1.639375 -5.505 2.27875 -5.25 2.9375 C-4.18437567 5.18741541 -4.18437567 5.18741541 -1.875 5.75 C-1.25625 5.8325 -0.6375 5.915 0 6 C0 4.02 0 2.04 0 0 Z " fill="#040403" transform="translate(630,437)"/>
<path d="M0 0 C0.33 0 0.66 0 1 0 C2.33257403 13.6332574 2.33257403 13.6332574 1 20 C-1.08229108 16.87656337 -1.23770457 16.46147078 -0.9765625 12.98828125 C-0.925 12.23095703 -0.8734375 11.47363281 -0.8203125 10.69335938 C-0.75585938 9.90767578 -0.69140625 9.12199219 -0.625 8.3125 C-0.56828125 7.51521484 -0.5115625 6.71792969 -0.453125 5.89648438 C-0.31183972 3.93026419 -0.15720094 1.96501176 0 0 Z " fill="#080806" transform="translate(668,421)"/>
<path d="M0 0 C0 1.65 0 3.3 0 5 C-2 4 -2 4 -3 3 C-5.64 3.99 -8.28 4.98 -11 6 C-10.67 4.68 -10.34 3.36 -10 2 C-6.40349908 0.40155515 -3.96602757 0 0 0 Z " fill="#090907" transform="translate(664,408)"/>
<path d="M0 0 C0.66 0 1.32 0 2 0 C2.02694851 1.95825873 2.04637218 3.91662226 2.0625 5.875 C2.07410156 6.96554687 2.08570313 8.05609375 2.09765625 9.1796875 C2 12 2 12 1 14 C0.34 14 -0.32 14 -1 14 C-0.67 9.38 -0.34 4.76 0 0 Z " fill="#DF0001" transform="translate(207,420)"/>
<path d="M0 0 C0.66 0 1.32 0 2 0 C2.18451025 9.41002278 2.18451025 9.41002278 1 14 C0.34 13.34 -0.32 12.68 -1 12 C-0.9765625 9.1796875 -0.9765625 9.1796875 -0.625 5.875 C-0.51414062 4.77929688 -0.40328125 3.68359375 -0.2890625 2.5546875 C-0.14597656 1.29011719 -0.14597656 1.29011719 0 0 Z " fill="#0D0D0B" transform="translate(591,413)"/>
<path d="M0 0 C1.93681161 -0.08107583 3.8745934 -0.13922475 5.8125 -0.1875 C6.89144531 -0.22230469 7.97039062 -0.25710938 9.08203125 -0.29296875 C12 0 12 0 13.88671875 1.51171875 C14.25410156 2.00285156 14.62148438 2.49398438 15 3 C11.19402954 4.26865682 9.71644033 3.28937726 6 2 C4.68 2 3.36 2 2 2 C1.67 2.66 1.34 3.32 1 4 C0.67 2.68 0.34 1.36 0 0 Z " fill="#0B0A08" transform="translate(244,414)"/>
<path d="M0 0 C0.66 0.33 1.32 0.66 2 1 C2 3.97 2 6.94 2 10 C-0.64 10 -3.28 10 -6 10 C-5.34 9.34 -4.68 8.68 -4 8 C-2.68 8 -1.36 8 0 8 C0 5.36 0 2.72 0 0 Z " fill="#070705" transform="translate(701,401)"/>
<path d="M0 0 C0.33 0.66 0.66 1.32 1 2 C0.0625 4.625 0.0625 4.625 -1 7 C-3.64 7 -6.28 7 -9 7 C-9.33 6.01 -9.66 5.02 -10 4 C-7.36 4.33 -4.72 4.66 -2 5 C-1.34 3.35 -0.68 1.7 0 0 Z " fill="#0A0A09" transform="translate(525,438)"/>
<path d="M0 0 C1.15957207 3.47871621 0.77456651 4.34219645 -0.4375 7.6875 C-0.72496094 8.49574219 -1.01242187 9.30398438 -1.30859375 10.13671875 C-1.65083984 11.05904297 -1.65083984 11.05904297 -2 12 C-2.33 12 -2.66 12 -3 12 C-3.08090971 10.37581255 -3.13914995 8.75048255 -3.1875 7.125 C-3.22230469 6.22007812 -3.25710938 5.31515625 -3.29296875 4.3828125 C-3.19628906 3.59648437 -3.09960938 2.81015625 -3 2 C-2.01 1.34 -1.02 0.68 0 0 Z " fill="#0D0D0B" transform="translate(562,418)"/>
<path d="M0 0 C0.33 0 0.66 0 1 0 C1.63019694 9.01531729 1.63019694 9.01531729 -1 13.125 C-1.66 13.74375 -2.32 14.3625 -3 15 C-3.125 11.625 -3.125 11.625 -3 8 C-2.34 7.34 -1.68 6.68 -1 6 C-0.60235737 4.01178687 -0.26224651 2.01055661 0 0 Z " fill="#292928" transform="translate(525,428)"/>
<path d="M0 0 C0.99 0 1.98 0 3 0 C3 2.97 3 5.94 3 9 C2.01 9 1.02 9 0 9 C0 6.03 0 3.06 0 0 Z " fill="#2F2F2D" transform="translate(378,423)"/>
<path d="M0 0 C0.33 0 0.66 0 1 0 C0.67 2.64 0.34 5.28 0 8 C-0.66 8 -1.32 8 -2 8 C-2 9.65 -2 11.3 -2 13 C-2.66 13 -3.32 13 -4 13 C-4.37068304 6.45126631 -4.37068304 6.45126631 -2.5625 4.25 C-2.046875 3.8375 -1.53125 3.425 -1 3 C-0.67 2.01 -0.34 1.02 0 0 Z " fill="#2C2C29" transform="translate(627,415)"/>
<path d="M0 0 C0.66 0.66 1.32 1.32 2 2 C3.32 2 4.64 2 6 2 C6 1.34 6 0.68 6 0 C6.99 0.33 7.98 0.66 9 1 C7.875 3 7.875 3 6 5 C2.8125 5.25 2.8125 5.25 0 5 C0 3.35 0 1.7 0 0 Z " fill="#0F0F0B" transform="translate(732,393)"/>
<path d="M0 0 C0.66 0.33 1.32 0.66 2 1 C1.67 2.98 1.34 4.96 1 7 C0.67 7 0.34 7 0 7 C-0.33 9.31 -0.66 11.62 -1 14 C-1.33 14 -1.66 14 -2 14 C-2 10.04 -2 6.08 -2 2 C-1.34 2 -0.68 2 0 2 C0 1.34 0 0.68 0 0 Z " fill="#080705" transform="translate(317,424)"/>
<path d="M0 0 C2.33944736 0.28730055 4.6739143 0.61936779 7 1 C6.67 2.32 6.34 3.64 6 5 C6 4.34 6 3.68 6 3 C2.87709365 3.48578543 0.00419641 3.9986012 -3 5 C-1.125 1.125 -1.125 1.125 0 0 Z " fill="#0A0A09" transform="translate(477,408)"/>
<path d="M0 0 C0.99 0.33 1.98 0.66 3 1 C2.67 1.886875 2.34 2.77375 2 3.6875 C1.08777857 6.70923347 0.81669042 8.88373706 1 12 C0.01 11.34 -0.98 10.68 -2 10 C-1.125 2.25 -1.125 2.25 0 0 Z " fill="#0D0C0B" transform="translate(351,418)"/>
<path d="M0 0 C0.66 0.33 1.32 0.66 2 1 C0.515 7.435 0.515 7.435 -1 14 C-1.33 14 -1.66 14 -2 14 C-2.05410687 12.22950311 -2.09284119 10.45853151 -2.125 8.6875 C-2.14820313 7.70136719 -2.17140625 6.71523438 -2.1953125 5.69921875 C-2 3 -2 3 0 0 Z " fill="#0F0F0D" transform="translate(338,420)"/>
<path d="M0 0 C3 3 3 3 3.07421875 5.26171875 C2.94660156 6.06222656 2.81898438 6.86273438 2.6875 7.6875 C2.50767578 8.89986328 2.50767578 8.89986328 2.32421875 10.13671875 C2.21722656 10.75160156 2.11023438 11.36648438 2 12 C1.34 12 0.68 12 0 12 C0 8.04 0 4.08 0 0 Z " fill="#0E0E0C" transform="translate(561,401)"/>
<path d="M0 0 C0.33 0.99 0.66 1.98 1 3 C0.67 3.66 0.34 4.32 0 5 C-6.75 5.125 -6.75 5.125 -9 4 C-8.67 3.01 -8.34 2.02 -8 1 C-8 1.66 -8 2.32 -8 3 C-3.66770285 2.1395861 -3.66770285 2.1395861 0 0 Z " fill="#030303" transform="translate(780,440)"/>
<path d="M0 0 C0.66 0 1.32 0 2 0 C2 1.65 2 3.3 2 5 C0.68 5.33 -0.64 5.66 -2 6 C-2 6.66 -2 7.32 -2 8 C-3.32 8 -4.64 8 -6 8 C-6 7.34 -6 6.68 -6 6 C-5.195625 5.525625 -4.39125 5.05125 -3.5625 4.5625 C-0.7081924 3.20016328 -0.7081924 3.20016328 0 0 Z " fill="#13130E" transform="translate(737,431)"/>
<path d="M0 0 C0.66 0 1.32 0 2 0 C1.34 4.62 0.68 9.24 0 14 C-0.33 14 -0.66 14 -1 14 C-1.22142255 12.04310341 -1.4267568 10.08438048 -1.625 8.125 C-1.74101562 7.03445313 -1.85703125 5.94390625 -1.9765625 4.8203125 C-1.98429687 3.88960938 -1.99203125 2.95890625 -2 2 C-1.34 1.34 -0.68 0.68 0 0 Z " fill="#12120E" transform="translate(457,423)"/>
<path d="M0 0 C0.66 0 1.32 0 2 0 C2.25 7.625 2.25 7.625 0 11 C-0.66 10.67 -1.32 10.34 -2 10 C-1.34 6.7 -0.68 3.4 0 0 Z " fill="#0B0B0A" transform="translate(518,425)"/>
<path d="M0 0 C0 0.66 0 1.32 0 2 C-1.423125 2.37125 -1.423125 2.37125 -2.875 2.75 C-6.08693191 3.6857077 -6.08693191 3.6857077 -7.375 6.125 C-7.58125 6.74375 -7.7875 7.3625 -8 8 C-8.66 7.34 -9.32 6.68 -10 6 C-9.34 6 -8.68 6 -8 6 C-7.896875 5.38125 -7.79375 4.7625 -7.6875 4.125 C-6.34984772 -0.00956158 -4.00985169 0 0 0 Z " fill="#0F0F0C" transform="translate(550,410)"/>
<path d="M0 0 C0.99 0 1.98 0 3 0 C3 1.65 3 3.3 3 5 C2.34 5 1.68 5 1 5 C1 5.66 1 6.32 1 7 C0.34 7 -0.32 7 -1 7 C-1 7.66 -1 8.32 -1 9 C-1.66 8.67 -2.32 8.34 -3 8 C-2.5359375 7.13375 -2.5359375 7.13375 -2.0625 6.25 C-1.07416636 4.15705816 -0.4831387 2.25464725 0 0 Z " fill="#2D2D2C" transform="translate(660,429)"/>
<path d="M0 0 C0.66 0 1.32 0 2 0 C2 1.65 2 3.3 2 5 C2.66 5 3.32 5 4 5 C4 5.66 4 6.32 4 7 C5.32 7.33 6.64 7.66 8 8 C5.125 8.125 5.125 8.125 2 8 C0 6 0 6 -0.125 2.875 C-0.08375 1.92625 -0.0425 0.9775 0 0 Z " fill="#181816" transform="translate(708,388)"/>
<path d="M0 0 C0.99 0.33 1.98 0.66 3 1 C3 3.31 3 5.62 3 8 C2.34 7.67 1.68 7.34 1 7 C1 5.68 1 4.36 1 3 C-0.32 2.67 -1.64 2.34 -3 2 C-2.01 1.34 -1.02 0.68 0 0 Z " fill="#10100C" transform="translate(698,434)"/>
<path d="M0 0 C2.0625 0.4375 2.0625 0.4375 4 1 C4 1.99 4 2.98 4 4 C4.99 4 5.98 4 7 4 C7 4.66 7 5.32 7 6 C6.34 6 5.68 6 5 6 C5 6.66 5 7.32 5 8 C4.34 8 3.68 8 3 8 C3 6.02 3 4.04 3 2 C1.68 1.67 0.36 1.34 -1 1 C-0.67 0.67 -0.34 0.34 0 0 Z " fill="#434241" transform="translate(315,403)"/>
<path d="M0 0 C0.66 0 1.32 0 2 0 C1.67 1.65 1.34 3.3 1 5 C-1.64 5 -4.28 5 -7 5 C-5 3 -5 3 -2.375 2.875 C-1.59125 2.91625 -0.8075 2.9575 0 3 C0 2.01 0 1.02 0 0 Z " fill="#090807" transform="translate(447,434)"/>
<path d="M0 0 C1.32 0 2.64 0 4 0 C3.67 2.31 3.34 4.62 3 7 C2.01 7 1.02 7 0 7 C0 4.69 0 2.38 0 0 Z " fill="#10100D" transform="translate(724,423)"/>
<path d="M0 0 C0.99 0 1.98 0 3 0 C3.25 6.625 3.25 6.625 1 10 C-0.04005702 6.61981469 -0.08004482 3.5219721 0 0 Z " fill="#0C0C0A" transform="translate(553,408)"/>
<path d="M0 0 C0.66 0 1.32 0 2 0 C2 2.31 2 4.62 2 7 C0.02 7.99 0.02 7.99 -2 9 C-1.34 6.03 -0.68 3.06 0 0 Z " fill="#0C0C0A" transform="translate(520,407)"/>
<path d="M0 0 C3.62528568 -0.20140476 5.86501708 0.14223235 9 2 C9 2.66 9 3.32 9 4 C3.46153846 3.38461538 3.46153846 3.38461538 1.125 1.4375 C0.75375 0.963125 0.3825 0.48875 0 0 Z " fill="#050505" transform="translate(536,443)"/>
<path d="M0 0 C1.485 0.99 1.485 0.99 3 2 C3 2.99 3 3.98 3 5 C3.66 5 4.32 5 5 5 C5 6.32 5 7.64 5 9 C4.34 9 3.68 9 3 9 C1.68 6.36 0.36 3.72 -1 1 C-0.67 0.67 -0.34 0.34 0 0 Z " fill="#0D0D0A" transform="translate(613,422)"/>
<path d="M0 0 C0.99 0.495 0.99 0.495 2 1 C2 1.66 2 2.32 2 3 C2.804375 2.979375 3.60875 2.95875 4.4375 2.9375 C7 3 7 3 8 4 C8.04080783 5.99958364 8.04254356 8.00045254 8 10 C7.67 8.68 7.34 7.36 7 6 C6.34 6 5.68 6 5 6 C5 5.34 5 4.68 5 4 C3.68 4 2.36 4 1 4 C0.67 2.68 0.34 1.36 0 0 Z " fill="#2B2A28" transform="translate(259,409)"/>
<path d="M0 0 C-0.33 1.32 -0.66 2.64 -1 4 C-3 4 -5 4 -7 4 C-7 3.34 -7 2.68 -7 2 C-4 0 -4 0 0 0 Z " fill="#111110" transform="translate(492,433)"/>
<path d="M0 0 C0.99 0 1.98 0 3 0 C3 2.31 3 4.62 3 7 C2.01 6.67 1.02 6.34 0 6 C0 4.02 0 2.04 0 0 Z " fill="#262624" transform="translate(558,429)"/>
<path d="M0 0 C0.66 0.33 1.32 0.66 2 1 C1.34 3.31 0.68 5.62 0 8 C-0.66 8 -1.32 8 -2 8 C-2 5.69 -2 3.38 -2 1 C-1.34 0.67 -0.68 0.34 0 0 Z " fill="#0F0F0D" transform="translate(747,428)"/>
<path d="M0 0 C0.99 0 1.98 0 3 0 C3 1.98 3 3.96 3 6 C1.68 5.67 0.36 5.34 -1 5 C-0.67 3.35 -0.34 1.7 0 0 Z " fill="#10100E" transform="translate(452,396)"/>
<path d="M0 0 C0.99 0 1.98 0 3 0 C3 1.98 3 3.96 3 6 C2.01 6 1.02 6 0 6 C0 4.02 0 2.04 0 0 Z " fill="#31312F" transform="translate(516,436)"/>
<path d="M0 0 C0.99 0 1.98 0 3 0 C3 1.98 3 3.96 3 6 C2.01 6.33 1.02 6.66 0 7 C0 4.69 0 2.38 0 0 Z " fill="#353433" transform="translate(328,434)"/>
<path d="M0 0 C2.56687367 3.8503105 1.83288724 5.58569763 1 10 C0.34 9.34 -0.32 8.68 -1 8 C-0.96712417 5.27130593 -0.43602229 2.7033382 0 0 Z " fill="#11110F" transform="translate(596,428)"/>
<path d="M0 0 C0.66 0 1.32 0 2 0 C2 2.31 2 4.62 2 7 C1.01 6.67 0.02 6.34 -1 6 C-0.67 4.02 -0.34 2.04 0 0 Z " fill="#383836" transform="translate(531,425)"/>
<path d="M0 0 C0.33 0.66 0.66 1.32 1 2 C1.66 2 2.32 2 3 2 C3 3.65 3 5.3 3 7 C2.01 7.33 1.02 7.66 0 8 C0 5.36 0 2.72 0 0 Z " fill="#282827" transform="translate(518,416)"/>
<path d="M0 0 C0.99 0 1.98 0 3 0 C3.1875 2.375 3.1875 2.375 3 5 C2.01 5.66 1.02 6.32 0 7 C0 4.69 0 2.38 0 0 Z " fill="#282826" transform="translate(560,413)"/>
<path d="M0 0 C1.98 0 3.96 0 6 0 C5.67 0.66 5.34 1.32 5 2 C4.01 2 3.02 2 2 2 C1.67 3.32 1.34 4.64 1 6 C0 5 0 5 -0.0625 2.4375 C-0.041875 1.633125 -0.02125 0.82875 0 0 Z " fill="#040403" transform="translate(248,389)"/>
<path d="M0 0 C2.5 2.25 2.5 2.25 5 5 C5 6.32 5 7.64 5 9 C3.5 7.6875 3.5 7.6875 2 6 C2 5.01 2 4.02 2 3 C1.34 3 0.68 3 0 3 C0 2.01 0 1.02 0 0 Z " fill="#0A0906" transform="translate(261,384)"/>
<path d="M0 0 C0 0.66 0 1.32 0 2 C-0.66 2 -1.32 2 -2 2 C-2 2.66 -2 3.32 -2 4 C-3.98 4 -5.96 4 -8 4 C-3.375 0 -3.375 0 0 0 Z " fill="#151412" transform="translate(551,435)"/>
<path d="M0 0 C0.99 0.33 1.98 0.66 3 1 C3 3.31 3 5.62 3 8 C2.34 8 1.68 8 1 8 C0.67 5.36 0.34 2.72 0 0 Z " fill="#080807" transform="translate(426,424)"/>
<path d="M0 0 C0.99 0 1.98 0 3 0 C3.99 2.31 4.98 4.62 6 7 C5.01 7.495 5.01 7.495 4 8 C2.68 5.36 1.36 2.72 0 0 Z " fill="#050504" transform="translate(607,414)"/>
<path d="M0 0 C3.44216672 2.6598561 3.99504674 5.90288286 5 10 C2.03134491 7.45543849 0.6380249 4.51005335 -1 1 C-0.67 0.67 -0.34 0.34 0 0 Z " fill="#080806" transform="translate(602,402)"/>
<path d="" fill="#FFFFFF" transform="translate(0,0)"/>
<path d="" fill="#FFFFFF" transform="translate(0,0)"/>
<path d="" fill="#FFFFFF" transform="translate(0,0)"/>
</svg>
